<svg xmlns="http://www.w3.org/2000/svg" width="1500" height="820" viewBox="0 0 1500 820" font-family="Helvetica,Arial,sans-serif">
<rect width="1500" height="820" fill="#0f1117"/>
<rect x="60" y="70" width="1380" height="600" fill="#171a22" stroke="#3a3f4b"/>
<text x="60" y="34" fill="#f5f5f5" font-size="24" font-weight="bold">Jamie Rae Mettenbrink — Astrocartography</text>
<text x="60" y="56" fill="#9aa0ac" font-size="14">4/24/1986 06:10 · lat 33.4942, lng -111.9261 · Sun 4.1° Taurus, Moon 4.3° Scorpio</text>
<line x1="60.0" y1="70" x2="60.0" y2="670" stroke="#2a2e38" stroke-width="1"/>
<text x="60.0" y="686" fill="#6b7280" font-size="11" text-anchor="middle">-180°</text>
<line x1="175.0" y1="70" x2="175.0" y2="670" stroke="#2a2e38" stroke-width="1"/>
<text x="175.0" y="686" fill="#6b7280" font-size="11" text-anchor="middle">-150°</text>
<line x1="290.0" y1="70" x2="290.0" y2="670" stroke="#2a2e38" stroke-width="1"/>
<text x="290.0" y="686" fill="#6b7280" font-size="11" text-anchor="middle">-120°</text>
<line x1="405.0" y1="70" x2="405.0" y2="670" stroke="#2a2e38" stroke-width="1"/>
<text x="405.0" y="686" fill="#6b7280" font-size="11" text-anchor="middle">-90°</text>
<line x1="520.0" y1="70" x2="520.0" y2="670" stroke="#2a2e38" stroke-width="1"/>
<text x="520.0" y="686" fill="#6b7280" font-size="11" text-anchor="middle">-60°</text>
<line x1="635.0" y1="70" x2="635.0" y2="670" stroke="#2a2e38" stroke-width="1"/>
<text x="635.0" y="686" fill="#6b7280" font-size="11" text-anchor="middle">-30°</text>
<line x1="750.0" y1="70" x2="750.0" y2="670" stroke="#2a2e38" stroke-width="1"/>
<text x="750.0" y="686" fill="#6b7280" font-size="11" text-anchor="middle">0°</text>
<line x1="865.0" y1="70" x2="865.0" y2="670" stroke="#2a2e38" stroke-width="1"/>
<text x="865.0" y="686" fill="#6b7280" font-size="11" text-anchor="middle">30°</text>
<line x1="980.0" y1="70" x2="980.0" y2="670" stroke="#2a2e38" stroke-width="1"/>
<text x="980.0" y="686" fill="#6b7280" font-size="11" text-anchor="middle">60°</text>
<line x1="1095.0" y1="70" x2="1095.0" y2="670" stroke="#2a2e38" stroke-width="1"/>
<text x="1095.0" y="686" fill="#6b7280" font-size="11" text-anchor="middle">90°</text>
<line x1="1210.0" y1="70" x2="1210.0" y2="670" stroke="#2a2e38" stroke-width="1"/>
<text x="1210.0" y="686" fill="#6b7280" font-size="11" text-anchor="middle">120°</text>
<line x1="1325.0" y1="70" x2="1325.0" y2="670" stroke="#2a2e38" stroke-width="1"/>
<text x="1325.0" y="686" fill="#6b7280" font-size="11" text-anchor="middle">150°</text>
<line x1="1440.0" y1="70" x2="1440.0" y2="670" stroke="#2a2e38" stroke-width="1"/>
<text x="1440.0" y="686" fill="#6b7280" font-size="11" text-anchor="middle">180°</text>
<line x1="60" y1="652.4" x2="1440" y2="652.4" stroke="#2a2e38" stroke-width="1"/>
<text x="52" y="656.4" fill="#6b7280" font-size="11" text-anchor="end">-80°</text>
<line x1="60" y1="581.8" x2="1440" y2="581.8" stroke="#2a2e38" stroke-width="1"/>
<text x="52" y="585.8" fill="#6b7280" font-size="11" text-anchor="end">-60°</text>
<line x1="60" y1="511.2" x2="1440" y2="511.2" stroke="#2a2e38" stroke-width="1"/>
<text x="52" y="515.2" fill="#6b7280" font-size="11" text-anchor="end">-40°</text>
<line x1="60" y1="440.6" x2="1440" y2="440.6" stroke="#2a2e38" stroke-width="1"/>
<text x="52" y="444.6" fill="#6b7280" font-size="11" text-anchor="end">-20°</text>
<line x1="60" y1="370.0" x2="1440" y2="370.0" stroke="#2a2e38" stroke-width="1"/>
<text x="52" y="374.0" fill="#6b7280" font-size="11" text-anchor="end">0°</text>
<line x1="60" y1="299.4" x2="1440" y2="299.4" stroke="#2a2e38" stroke-width="1"/>
<text x="52" y="303.4" fill="#6b7280" font-size="11" text-anchor="end">20°</text>
<line x1="60" y1="228.8" x2="1440" y2="228.8" stroke="#2a2e38" stroke-width="1"/>
<text x="52" y="232.8" fill="#6b7280" font-size="11" text-anchor="end">40°</text>
<line x1="60" y1="158.2" x2="1440" y2="158.2" stroke="#2a2e38" stroke-width="1"/>
<text x="52" y="162.2" fill="#6b7280" font-size="11" text-anchor="end">60°</text>
<line x1="60" y1="87.6" x2="1440" y2="87.6" stroke="#2a2e38" stroke-width="1"/>
<text x="52" y="91.6" fill="#6b7280" font-size="11" text-anchor="end">80°</text>
<line x1="60" y1="370.0" x2="1440" y2="370.0" stroke="#3c4250" stroke-width="1.5"/>
<circle cx="320.9" cy="251.8" r="4.2" fill="#ffd166" stroke="#0f1117" stroke-width="0.6"/>
<text x="325.9" y="254.8" fill="#8b909b" font-size="9">Phoenix*</text>
<circle cx="296.7" cy="249.8" r="2.4" fill="#cfd3da" stroke="#0f1117" stroke-width="0.6"/>
<text x="301.7" y="252.8" fill="#8b909b" font-size="9">Los Angeles</text>
<circle cx="278.0" cy="196.1" r="2.4" fill="#cfd3da" stroke="#0f1117" stroke-width="0.6"/>
<text x="283.0" y="199.1" fill="#8b909b" font-size="9">Vancouver</text>
<circle cx="347.5" cy="229.7" r="2.4" fill="#cfd3da" stroke="#0f1117" stroke-width="0.6"/>
<text x="352.5" y="232.7" fill="#8b909b" font-size="9">Denver</text>
<circle cx="414.1" cy="222.2" r="2.4" fill="#cfd3da" stroke="#0f1117" stroke-width="0.6"/>
<text x="419.1" y="225.2" fill="#8b909b" font-size="9">Chicago</text>
<circle cx="445.7" cy="215.9" r="2.4" fill="#cfd3da" stroke="#0f1117" stroke-width="0.6"/>
<text x="450.7" y="218.9" fill="#8b909b" font-size="9">Toronto</text>
<circle cx="466.3" cy="226.3" r="2.4" fill="#cfd3da" stroke="#0f1117" stroke-width="0.6"/>
<text x="471.3" y="229.3" fill="#8b909b" font-size="9">New York</text>
<circle cx="442.6" cy="279.1" r="2.4" fill="#cfd3da" stroke="#0f1117" stroke-width="0.6"/>
<text x="447.6" y="282.1" fill="#8b909b" font-size="9">Miami</text>
<circle cx="370.0" cy="301.4" r="2.4" fill="#cfd3da" stroke="#0f1117" stroke-width="0.6"/>
<text x="375.0" y="304.4" fill="#8b909b" font-size="9">Mexico City</text>
<circle cx="466.1" cy="353.4" r="2.4" fill="#cfd3da" stroke="#0f1117" stroke-width="0.6"/>
<text x="471.1" y="356.4" fill="#8b909b" font-size="9">Bogota</text>
<circle cx="454.7" cy="412.5" r="2.4" fill="#cfd3da" stroke="#0f1117" stroke-width="0.6"/>
<text x="459.7" y="415.5" fill="#8b909b" font-size="9">Lima</text>
<circle cx="479.1" cy="488.1" r="2.4" fill="#cfd3da" stroke="#0f1117" stroke-width="0.6"/>
<text x="484.1" y="491.1" fill="#8b909b" font-size="9">Santiago</text>
<circle cx="526.2" cy="492.1" r="2.4" fill="#cfd3da" stroke="#0f1117" stroke-width="0.6"/>
<text x="531.2" y="495.1" fill="#8b909b" font-size="9">Buenos Aires</text>
<circle cx="584.5" cy="450.9" r="2.4" fill="#cfd3da" stroke="#0f1117" stroke-width="0.6"/>
<text x="589.5" y="453.9" fill="#8b909b" font-size="9">Rio de Janeiro</text>
<circle cx="665.9" cy="143.6" r="2.4" fill="#cfd3da" stroke="#0f1117" stroke-width="0.6"/>
<text x="670.9" y="146.6" fill="#8b909b" font-size="9">Reykjavik</text>
<circle cx="749.5" cy="188.2" r="2.4" fill="#cfd3da" stroke="#0f1117" stroke-width="0.6"/>
<text x="754.5" y="191.2" fill="#8b909b" font-size="9">London</text>
<circle cx="759.0" cy="197.6" r="2.4" fill="#cfd3da" stroke="#0f1117" stroke-width="0.6"/>
<text x="764.0" y="200.6" fill="#8b909b" font-size="9">Paris</text>
<circle cx="735.8" cy="227.3" r="2.4" fill="#cfd3da" stroke="#0f1117" stroke-width="0.6"/>
<text x="740.8" y="230.3" fill="#8b909b" font-size="9">Madrid</text>
<circle cx="797.9" cy="222.1" r="2.4" fill="#cfd3da" stroke="#0f1117" stroke-width="0.6"/>
<text x="802.9" y="225.1" fill="#8b909b" font-size="9">Rome</text>
<circle cx="801.4" cy="184.6" r="2.4" fill="#cfd3da" stroke="#0f1117" stroke-width="0.6"/>
<text x="806.4" y="187.6" fill="#8b909b" font-size="9">Berlin</text>
<circle cx="841.0" cy="236.0" r="2.4" fill="#cfd3da" stroke="#0f1117" stroke-width="0.6"/>
<text x="846.0" y="239.0" fill="#8b909b" font-size="9">Athens</text>
<circle cx="861.1" cy="225.3" r="2.4" fill="#cfd3da" stroke="#0f1117" stroke-width="0.6"/>
<text x="866.1" y="228.3" fill="#8b909b" font-size="9">Istanbul</text>
<circle cx="894.2" cy="173.2" r="2.4" fill="#cfd3da" stroke="#0f1117" stroke-width="0.6"/>
<text x="899.2" y="176.2" fill="#8b909b" font-size="9">Moscow</text>
<circle cx="720.9" cy="251.5" r="2.4" fill="#cfd3da" stroke="#0f1117" stroke-width="0.6"/>
<text x="725.9" y="254.5" fill="#8b909b" font-size="9">Casablanca</text>
<circle cx="869.8" cy="264.0" r="2.4" fill="#cfd3da" stroke="#0f1117" stroke-width="0.6"/>
<text x="874.8" y="267.0" fill="#8b909b" font-size="9">Cairo</text>
<circle cx="763.0" cy="347.0" r="2.4" fill="#cfd3da" stroke="#0f1117" stroke-width="0.6"/>
<text x="768.0" y="350.0" fill="#8b909b" font-size="9">Lagos</text>
<circle cx="891.1" cy="374.6" r="2.4" fill="#cfd3da" stroke="#0f1117" stroke-width="0.6"/>
<text x="896.1" y="377.6" fill="#8b909b" font-size="9">Nairobi</text>
<circle cx="820.6" cy="489.7" r="2.4" fill="#cfd3da" stroke="#0f1117" stroke-width="0.6"/>
<text x="825.6" y="492.7" fill="#8b909b" font-size="9">Cape Town</text>
<circle cx="961.9" cy="281.1" r="2.4" fill="#cfd3da" stroke="#0f1117" stroke-width="0.6"/>
<text x="966.9" y="284.1" fill="#8b909b" font-size="9">Dubai</text>
<circle cx="1029.4" cy="302.7" r="2.4" fill="#cfd3da" stroke="#0f1117" stroke-width="0.6"/>
<text x="1034.4" y="305.7" fill="#8b909b" font-size="9">Mumbai</text>
<circle cx="1046.0" cy="269.0" r="2.4" fill="#cfd3da" stroke="#0f1117" stroke-width="0.6"/>
<text x="1051.0" y="272.0" fill="#8b909b" font-size="9">New Delhi</text>
<circle cx="1135.2" cy="321.4" r="2.4" fill="#cfd3da" stroke="#0f1117" stroke-width="0.6"/>
<text x="1140.2" y="324.4" fill="#8b909b" font-size="9">Bangkok</text>
<circle cx="1148.0" cy="365.2" r="2.4" fill="#cfd3da" stroke="#0f1117" stroke-width="0.6"/>
<text x="1153.0" y="368.2" fill="#8b909b" font-size="9">Singapore</text>
<circle cx="1187.7" cy="291.2" r="2.4" fill="#cfd3da" stroke="#0f1117" stroke-width="0.6"/>
<text x="1192.7" y="294.2" fill="#8b909b" font-size="9">Hong Kong</text>
<circle cx="1196.2" cy="229.2" r="2.4" fill="#cfd3da" stroke="#0f1117" stroke-width="0.6"/>
<text x="1201.2" y="232.2" fill="#8b909b" font-size="9">Beijing</text>
<circle cx="1285.3" cy="244.1" r="2.4" fill="#cfd3da" stroke="#0f1117" stroke-width="0.6"/>
<text x="1290.3" y="247.1" fill="#8b909b" font-size="9">Tokyo</text>
<circle cx="1236.8" cy="237.4" r="2.4" fill="#cfd3da" stroke="#0f1117" stroke-width="0.6"/>
<text x="1241.8" y="240.4" fill="#8b909b" font-size="9">Seoul</text>
<circle cx="1329.6" cy="489.5" r="2.4" fill="#cfd3da" stroke="#0f1117" stroke-width="0.6"/>
<text x="1334.6" y="492.5" fill="#8b909b" font-size="9">Sydney</text>
<circle cx="1419.9" cy="500.1" r="2.4" fill="#cfd3da" stroke="#0f1117" stroke-width="0.6"/>
<text x="1424.9" y="503.1" fill="#8b909b" font-size="9">Auckland</text>
<circle cx="144.9" cy="294.8" r="2.4" fill="#cfd3da" stroke="#0f1117" stroke-width="0.6"/>
<text x="149.9" y="297.8" fill="#8b909b" font-size="9">Honolulu</text>
<line x1="681.2" y1="70" x2="681.2" y2="670" stroke="#E8A800" stroke-width="2" stroke-dasharray="none" opacity="0.92"/>
<text x="681.2" y="66" fill="#E8A800" font-size="10" text-anchor="middle">Sun MC</text>
<line x1="1371.2" y1="70" x2="1371.2" y2="670" stroke="#E8A800" stroke-width="2" stroke-dasharray="2,4" opacity="0.92"/>
<text x="1371.2" y="66" fill="#E8A800" font-size="10" text-anchor="middle">Sun IC</text>
<polyline points="164.8,115.9 176.7,119.4 187.0,122.9 196.1,126.5 204.1,130.0 211.3,133.5 217.8,137.1 223.6,140.6 229.0,144.1 234.0,147.6 238.6,151.2 242.8,154.7 246.8,158.2 250.5,161.8 253.9,165.3 257.2,168.8 260.2,172.4 263.1,175.9 265.9,179.4 268.5,182.9 271.0,186.5 273.3,190.0 275.6,193.5 277.7,197.1 279.8,200.6 281.8,204.1 283.7,207.6 285.5,211.2 287.3,214.7 289.0,218.2 290.6,221.8 292.2,225.3 293.8,228.8 295.3,232.4 296.7,235.9 298.2,239.4 299.5,242.9 300.9,246.5 302.2,250.0 303.5,253.5 304.7,257.1 305.9,260.6 307.1,264.1 308.3,267.6 309.4,271.2 310.5,274.7 311.6,278.2 312.7,281.8 313.8,285.3 314.8,288.8 315.9,292.4 316.9,295.9 317.9,299.4 318.9,302.9 319.8,306.5 320.8,310.0 321.8,313.5 322.7,317.1 323.7,320.6 324.6,324.1 325.5,327.6 326.4,331.2 327.3,334.7 328.2,338.2 329.1,341.8 330.0,345.3 330.9,348.8 331.8,352.4 332.7,355.9 333.5,359.4 334.4,362.9 335.3,366.5 336.2,370.0 337.1,373.5 337.9,377.1 338.8,380.6 339.7,384.1 340.6,387.6 341.5,391.2 342.3,394.7 343.2,398.2 344.1,401.8 345.0,405.3 345.9,408.8 346.9,412.4 347.8,415.9 348.7,419.4 349.6,422.9 350.6,426.5 351.5,430.0 352.5,433.5 353.5,437.1 354.5,440.6 355.5,444.1 356.5,447.6 357.5,451.2 358.6,454.7 359.6,458.2 360.7,461.8 361.8,465.3 362.9,468.8 364.1,472.4 365.2,475.9 366.4,479.4 367.7,482.9 368.9,486.5 370.2,490.0 371.5,493.5 372.8,497.1 374.2,500.6 375.6,504.1 377.1,507.6 378.6,511.2 380.1,514.7 381.7,518.2 383.4,521.8 385.1,525.3 386.8,528.8 388.7,532.4 390.6,535.9 392.6,539.4 394.6,542.9 396.8,546.5 399.0,550.0 401.4,553.5 403.9,557.1 406.5,560.6 409.2,564.1 412.1,567.6 415.2,571.2 418.4,574.7 421.9,578.2 425.6,581.8 429.5,585.3 433.8,588.8 438.4,592.4 443.3,595.9 448.7,599.4 454.6,602.9 461.1,606.5 468.3,610.0 476.3,613.5 485.3,617.1 495.6,620.6 507.6,624.1" fill="none" stroke="#E8A800" stroke-width="2" stroke-dasharray="7,4" opacity="0.92"/>
<text x="168.8" y="125.9" fill="#E8A800" font-size="9">Sun AS</text>
<polyline points="1197.6,115.9 1185.6,119.4 1175.3,122.9 1166.3,126.5 1158.3,130.0 1151.1,133.5 1144.6,137.1 1138.7,140.6 1133.3,144.1 1128.4,147.6 1123.8,151.2 1119.5,154.7 1115.6,158.2 1111.9,161.8 1108.4,165.3 1105.2,168.8 1102.1,172.4 1099.2,175.9 1096.5,179.4 1093.9,182.9 1091.4,186.5 1089.0,190.0 1086.8,193.5 1084.6,197.1 1082.6,200.6 1080.6,204.1 1078.7,207.6 1076.8,211.2 1075.1,214.7 1073.4,218.2 1071.7,221.8 1070.1,225.3 1068.6,228.8 1067.1,232.4 1065.6,235.9 1064.2,239.4 1062.8,242.9 1061.5,246.5 1060.2,250.0 1058.9,253.5 1057.7,257.1 1056.4,260.6 1055.2,264.1 1054.1,267.6 1052.9,271.2 1051.8,274.7 1050.7,278.2 1049.6,281.8 1048.6,285.3 1047.5,288.8 1046.5,292.4 1045.5,295.9 1044.5,299.4 1043.5,302.9 1042.5,306.5 1041.5,310.0 1040.6,313.5 1039.6,317.1 1038.7,320.6 1037.8,324.1 1036.9,327.6 1035.9,331.2 1035.0,334.7 1034.1,338.2 1033.2,341.8 1032.3,345.3 1031.5,348.8 1030.6,352.4 1029.7,355.9 1028.8,359.4 1027.9,362.9 1027.1,366.5 1026.2,370.0 1025.3,373.5 1024.4,377.1 1023.5,380.6 1022.7,384.1 1021.8,387.6 1020.9,391.2 1020.0,394.7 1019.1,398.2 1018.2,401.8 1017.3,405.3 1016.4,408.8 1015.5,412.4 1014.6,415.9 1013.7,419.4 1012.7,422.9 1011.8,426.5 1010.8,430.0 1009.8,433.5 1008.9,437.1 1007.9,440.6 1006.9,444.1 1005.9,447.6 1004.8,451.2 1003.8,454.7 1002.7,458.2 1001.6,461.8 1000.5,465.3 999.4,468.8 998.3,472.4 997.1,475.9 995.9,479.4 994.7,482.9 993.5,486.5 992.2,490.0 990.9,493.5 989.5,497.1 988.2,500.6 986.7,504.1 985.3,507.6 983.8,511.2 982.2,514.7 980.6,518.2 979.0,521.8 977.3,525.3 975.5,528.8 973.7,532.4 971.8,535.9 969.8,539.4 967.7,542.9 965.6,546.5 963.3,550.0 961.0,553.5 958.5,557.1 955.9,560.6 953.1,564.1 950.2,567.6 947.2,571.2 943.9,574.7 940.5,578.2 936.8,581.8 932.8,585.3 928.6,588.8 924.0,592.4 919.0,595.9 913.6,599.4 907.8,602.9 901.3,606.5 894.1,610.0 886.1,613.5 877.0,617.1 866.7,620.6 854.8,624.1" fill="none" stroke="#E8A800" stroke-width="2" stroke-dasharray="7,4,1,4" opacity="0.92"/>
<text x="1201.6" y="125.9" fill="#E8A800" font-size="9">Sun DS</text>
<line x1="1372.0" y1="70" x2="1372.0" y2="670" stroke="#7C8BA1" stroke-width="2" stroke-dasharray="none" opacity="0.92"/>
<text x="1372.0" y="66" fill="#7C8BA1" font-size="10" text-anchor="middle">Moon MC</text>
<line x1="682.0" y1="70" x2="682.0" y2="670" stroke="#7C8BA1" stroke-width="2" stroke-dasharray="2,4" opacity="0.92"/>
<text x="682.0" y="66" fill="#7C8BA1" font-size="10" text-anchor="middle">Moon IC</text>
<polyline points="1199.6,115.9 1187.6,119.4 1177.1,122.9 1168.0,126.5 1159.9,130.0 1152.7,133.5 1146.2,137.1 1140.2,140.6 1134.8,144.1 1129.8,147.6 1125.2,151.2 1120.9,154.7 1116.9,158.2 1113.2,161.8 1109.7,165.3 1106.5,168.8 1103.4,172.4 1100.4,175.9 1097.7,179.4 1095.1,182.9 1092.6,186.5 1090.2,190.0 1087.9,193.5 1085.8,197.1 1083.7,200.6 1081.7,204.1 1079.8,207.6 1077.9,211.2 1076.1,214.7 1074.4,218.2 1072.8,221.8 1071.2,225.3 1069.6,228.8 1068.1,232.4 1066.6,235.9 1065.2,239.4 1063.8,242.9 1062.5,246.5 1061.2,250.0 1059.9,253.5 1058.6,257.1 1057.4,260.6 1056.2,264.1 1055.0,267.6 1053.9,271.2 1052.8,274.7 1051.6,278.2 1050.6,281.8 1049.5,285.3 1048.4,288.8 1047.4,292.4 1046.4,295.9 1045.4,299.4 1044.4,302.9 1043.4,306.5 1042.4,310.0 1041.5,313.5 1040.5,317.1 1039.6,320.6 1038.6,324.1 1037.7,327.6 1036.8,331.2 1035.9,334.7 1035.0,338.2 1034.1,341.8 1033.2,345.3 1032.3,348.8 1031.4,352.4 1030.5,355.9 1029.6,359.4 1028.7,362.9 1027.8,366.5 1027.0,370.0 1026.1,373.5 1025.2,377.1 1024.3,380.6 1023.4,384.1 1022.5,387.6 1021.7,391.2 1020.8,394.7 1019.9,398.2 1019.0,401.8 1018.1,405.3 1017.1,408.8 1016.2,412.4 1015.3,415.9 1014.4,419.4 1013.4,422.9 1012.5,426.5 1011.5,430.0 1010.5,433.5 1009.6,437.1 1008.6,440.6 1007.6,444.1 1006.5,447.6 1005.5,451.2 1004.4,454.7 1003.4,458.2 1002.3,461.8 1001.2,465.3 1000.0,468.8 998.9,472.4 997.7,475.9 996.5,479.4 995.3,482.9 994.0,486.5 992.8,490.0 991.5,493.5 990.1,497.1 988.7,500.6 987.3,504.1 985.8,507.6 984.3,511.2 982.8,514.7 981.2,518.2 979.5,521.8 977.8,525.3 976.0,528.8 974.2,532.4 972.2,535.9 970.3,539.4 968.2,542.9 966.0,546.5 963.7,550.0 961.4,553.5 958.9,557.1 956.2,560.6 953.5,564.1 950.6,567.6 947.5,571.2 944.2,574.7 940.7,578.2 937.0,581.8 933.0,585.3 928.8,588.8 924.1,592.4 919.2,595.9 913.7,599.4 907.8,602.9 901.2,606.5 894.0,610.0 885.9,613.5 876.8,617.1 866.4,620.6 854.3,624.1" fill="none" stroke="#7C8BA1" stroke-width="2" stroke-dasharray="7,4" opacity="0.92"/>
<text x="1203.6" y="125.9" fill="#7C8BA1" font-size="9">Moon AS</text>
<polyline points="164.3,115.9 176.4,119.4 186.8,122.9 195.9,126.5 204.0,130.0 211.2,133.5 217.8,137.1 223.7,140.6 229.2,144.1 234.1,147.6 238.8,151.2 243.0,154.7 247.0,158.2 250.7,161.8 254.2,165.3 257.5,168.8 260.6,172.4 263.5,175.9 266.2,179.4 268.9,182.9 271.4,186.5 273.7,190.0 276.0,193.5 278.2,197.1 280.3,200.6 282.2,204.1 284.2,207.6 286.0,211.2 287.8,214.7 289.5,218.2 291.2,221.8 292.8,225.3 294.3,228.8 295.8,232.4 297.3,235.9 298.7,239.4 300.1,242.9 301.5,246.5 302.8,250.0 304.0,253.5 305.3,257.1 306.5,260.6 307.7,264.1 308.9,267.6 310.0,271.2 311.2,274.7 312.3,278.2 313.4,281.8 314.4,285.3 315.5,288.8 316.5,292.4 317.6,295.9 318.6,299.4 319.6,302.9 320.5,306.5 321.5,310.0 322.5,313.5 323.4,317.1 324.4,320.6 325.3,324.1 326.2,327.6 327.1,331.2 328.1,334.7 329.0,338.2 329.9,341.8 330.8,345.3 331.7,348.8 332.5,352.4 333.4,355.9 334.3,359.4 335.2,362.9 336.1,366.5 337.0,370.0 337.8,373.5 338.7,377.1 339.6,380.6 340.5,384.1 341.4,387.6 342.3,391.2 343.2,394.7 344.1,398.2 345.0,401.8 345.9,405.3 346.8,408.8 347.7,412.4 348.6,415.9 349.6,419.4 350.5,422.9 351.5,426.5 352.4,430.0 353.4,433.5 354.4,437.1 355.4,440.6 356.4,444.1 357.4,447.6 358.4,451.2 359.5,454.7 360.6,458.2 361.6,461.8 362.8,465.3 363.9,468.8 365.0,472.4 366.2,475.9 367.4,479.4 368.6,482.9 369.9,486.5 371.2,490.0 372.5,493.5 373.8,497.1 375.2,500.6 376.6,504.1 378.1,507.6 379.6,511.2 381.2,514.7 382.8,518.2 384.4,521.8 386.1,525.3 387.9,528.8 389.8,532.4 391.7,535.9 393.7,539.4 395.8,542.9 397.9,546.5 400.2,550.0 402.6,553.5 405.1,557.1 407.7,560.6 410.4,564.1 413.4,567.6 416.5,571.2 419.7,574.7 423.2,578.2 426.9,581.8 430.9,585.3 435.2,588.8 439.8,592.4 444.8,595.9 450.2,599.4 456.2,602.9 462.7,606.5 469.9,610.0 478.0,613.5 487.1,617.1 497.6,620.6 509.6,624.1" fill="none" stroke="#7C8BA1" stroke-width="2" stroke-dasharray="7,4,1,4" opacity="0.92"/>
<text x="168.3" y="125.9" fill="#7C8BA1" font-size="9">Moon DS</text>
<line x1="590.7" y1="70" x2="590.7" y2="670" stroke="#11998E" stroke-width="2" stroke-dasharray="none" opacity="0.92"/>
<text x="590.7" y="66" fill="#11998E" font-size="10" text-anchor="middle">Mer MC</text>
<line x1="1280.7" y1="70" x2="1280.7" y2="670" stroke="#11998E" stroke-width="2" stroke-dasharray="2,4" opacity="0.92"/>
<text x="1280.7" y="66" fill="#11998E" font-size="10" text-anchor="middle">Mer IC</text>
<polyline points="203.5,115.9 206.0,119.4 208.1,122.9 210.1,126.5 211.9,130.0 213.5,133.5 215.0,137.1 216.4,140.6 217.7,144.1 218.9,147.6 220.1,151.2 221.1,154.7 222.1,158.2 223.0,161.8 223.9,165.3 224.7,168.8 225.5,172.4 226.3,175.9 227.0,179.4 227.6,182.9 228.3,186.5 228.9,190.0 229.5,193.5 230.1,197.1 230.6,200.6 231.1,204.1 231.6,207.6 232.1,211.2 232.6,214.7 233.0,218.2 233.5,221.8 233.9,225.3 234.3,228.8 234.7,232.4 235.1,235.9 235.5,239.4 235.8,242.9 236.2,246.5 236.5,250.0 236.9,253.5 237.2,257.1 237.6,260.6 237.9,264.1 238.2,267.6 238.5,271.2 238.8,274.7 239.1,278.2 239.4,281.8 239.7,285.3 240.0,288.8 240.2,292.4 240.5,295.9 240.8,299.4 241.0,302.9 241.3,306.5 241.6,310.0 241.8,313.5 242.1,317.1 242.3,320.6 242.6,324.1 242.8,327.6 243.1,331.2 243.3,334.7 243.6,338.2 243.8,341.8 244.1,345.3 244.3,348.8 244.5,352.4 244.8,355.9 245.0,359.4 245.3,362.9 245.5,366.5 245.7,370.0 246.0,373.5 246.2,377.1 246.5,380.6 246.7,384.1 246.9,387.6 247.2,391.2 247.4,394.7 247.7,398.2 247.9,401.8 248.1,405.3 248.4,408.8 248.6,412.4 248.9,415.9 249.1,419.4 249.4,422.9 249.6,426.5 249.9,430.0 250.2,433.5 250.4,437.1 250.7,440.6 251.0,444.1 251.2,447.6 251.5,451.2 251.8,454.7 252.1,458.2 252.4,461.8 252.7,465.3 253.0,468.8 253.3,472.4 253.6,475.9 253.9,479.4 254.3,482.9 254.6,486.5 254.9,490.0 255.3,493.5 255.6,497.1 256.0,500.6 256.4,504.1 256.8,507.6 257.2,511.2 257.6,514.7 258.0,518.2 258.5,521.8 258.9,525.3 259.4,528.8 259.9,532.4 260.4,535.9 260.9,539.4 261.4,542.9 262.0,546.5 262.6,550.0 263.2,553.5 263.8,557.1 264.5,560.6 265.2,564.1 266.0,567.6 266.8,571.2 267.6,574.7 268.5,578.2 269.4,581.8 270.4,585.3 271.4,588.8 272.5,592.4 273.8,595.9 275.0,599.4 276.4,602.9 278.0,606.5 279.6,610.0 281.4,613.5 283.4,617.1 285.5,620.6 287.9,624.1" fill="none" stroke="#11998E" stroke-width="2" stroke-dasharray="7,4" opacity="0.92"/>
<text x="207.5" y="125.9" fill="#11998E" font-size="9">Mer AS</text>
<polyline points="977.9,115.9 975.5,119.4 973.4,122.9 971.4,126.5 969.6,130.0 968.0,133.5 966.4,137.1 965.0,140.6 963.8,144.1 962.5,147.6 961.4,151.2 960.4,154.7 959.4,158.2 958.5,161.8 957.6,165.3 956.8,168.8 956.0,172.4 955.2,175.9 954.5,179.4 953.8,182.9 953.2,186.5 952.6,190.0 952.0,193.5 951.4,197.1 950.9,200.6 950.4,204.1 949.9,207.6 949.4,211.2 948.9,214.7 948.5,218.2 948.0,221.8 947.6,225.3 947.2,228.8 946.8,232.4 946.4,235.9 946.0,239.4 945.6,242.9 945.3,246.5 944.9,250.0 944.6,253.5 944.3,257.1 943.9,260.6 943.6,264.1 943.3,267.6 943.0,271.2 942.7,274.7 942.4,278.2 942.1,281.8 941.8,285.3 941.5,288.8 941.2,292.4 941.0,295.9 940.7,299.4 940.4,302.9 940.2,306.5 939.9,310.0 939.6,313.5 939.4,317.1 939.1,320.6 938.9,324.1 938.6,327.6 938.4,331.2 938.1,334.7 937.9,338.2 937.7,341.8 937.4,345.3 937.2,348.8 936.9,352.4 936.7,355.9 936.5,359.4 936.2,362.9 936.0,366.5 935.7,370.0 935.5,373.5 935.3,377.1 935.0,380.6 934.8,384.1 934.5,387.6 934.3,391.2 934.1,394.7 933.8,398.2 933.6,401.8 933.3,405.3 933.1,408.8 932.8,412.4 932.6,415.9 932.3,419.4 932.1,422.9 931.8,426.5 931.6,430.0 931.3,433.5 931.0,437.1 930.8,440.6 930.5,444.1 930.2,447.6 930.0,451.2 929.7,454.7 929.4,458.2 929.1,461.8 928.8,465.3 928.5,468.8 928.2,472.4 927.9,475.9 927.6,479.4 927.2,482.9 926.9,486.5 926.5,490.0 926.2,493.5 925.8,497.1 925.5,500.6 925.1,504.1 924.7,507.6 924.3,511.2 923.9,514.7 923.5,518.2 923.0,521.8 922.6,525.3 922.1,528.8 921.6,532.4 921.1,535.9 920.6,539.4 920.1,542.9 919.5,546.5 918.9,550.0 918.3,553.5 917.6,557.1 917.0,560.6 916.3,564.1 915.5,567.6 914.7,571.2 913.9,574.7 913.0,578.2 912.1,581.8 911.1,585.3 910.1,588.8 908.9,592.4 907.7,595.9 906.4,599.4 905.0,602.9 903.5,606.5 901.9,610.0 900.1,613.5 898.1,617.1 896.0,620.6 893.5,624.1" fill="none" stroke="#11998E" stroke-width="2" stroke-dasharray="7,4,1,4" opacity="0.92"/>
<text x="981.9" y="125.9" fill="#11998E" font-size="9">Mer DS</text>
<line x1="770.3" y1="70" x2="770.3" y2="670" stroke="#E0529C" stroke-width="2" stroke-dasharray="none" opacity="0.92"/>
<text x="770.3" y="66" fill="#E0529C" font-size="10" text-anchor="middle">Ven MC</text>
<line x1="80.3" y1="70" x2="80.3" y2="670" stroke="#E0529C" stroke-width="2" stroke-dasharray="2,4" opacity="0.92"/>
<text x="80.3" y="66" fill="#E0529C" font-size="10" text-anchor="middle">Ven IC</text>
<polyline points="127.8,122.9 165.3,126.5 189.1,130.0 207.3,133.5 222.2,137.1 234.9,140.6 246.0,144.1 255.7,147.6 264.5,151.2 272.4,154.7 279.6,158.2 286.3,161.8 292.4,165.3 298.1,168.8 303.4,172.4 308.4,175.9 313.0,179.4 317.4,182.9 321.6,186.5 325.5,190.0 329.2,193.5 332.8,197.1 336.2,200.6 339.4,204.1 342.5,207.6 345.5,211.2 348.4,214.7 351.1,218.2 353.8,221.8 356.3,225.3 358.8,228.8 361.2,232.4 363.5,235.9 365.8,239.4 368.0,242.9 370.1,246.5 372.2,250.0 374.2,253.5 376.1,257.1 378.1,260.6 379.9,264.1 381.8,267.6 383.6,271.2 385.3,274.7 387.1,278.2 388.8,281.8 390.4,285.3 392.1,288.8 393.7,292.4 395.3,295.9 396.8,299.4 398.4,302.9 399.9,306.5 401.4,310.0 402.9,313.5 404.4,317.1 405.8,320.6 407.3,324.1 408.7,327.6 410.1,331.2 411.6,334.7 413.0,338.2 414.4,341.8 415.7,345.3 417.1,348.8 418.5,352.4 419.9,355.9 421.2,359.4 422.6,362.9 424.0,366.5 425.3,370.0 426.7,373.5 428.1,377.1 429.4,380.6 430.8,384.1 432.2,387.6 433.5,391.2 434.9,394.7 436.3,398.2 437.7,401.8 439.1,405.3 440.5,408.8 441.9,412.4 443.4,415.9 444.8,419.4 446.3,422.9 447.8,426.5 449.3,430.0 450.8,433.5 452.3,437.1 453.8,440.6 455.4,444.1 457.0,447.6 458.6,451.2 460.2,454.7 461.9,458.2 463.6,461.8 465.3,465.3 467.1,468.8 468.9,472.4 470.7,475.9 472.6,479.4 474.5,482.9 476.5,486.5 478.5,490.0 480.6,493.5 482.7,497.1 484.9,500.6 487.2,504.1 489.5,507.6 491.9,511.2 494.3,514.7 496.9,518.2 499.6,521.8 502.3,525.3 505.2,528.8 508.1,532.4 511.2,535.9 514.5,539.4 517.9,542.9 521.4,546.5 525.2,550.0 529.1,553.5 533.2,557.1 537.6,560.6 542.3,564.1 547.3,567.6 552.6,571.2 558.3,574.7 564.4,578.2 571.0,581.8 578.3,585.3 586.2,588.8 594.9,592.4 604.7,595.9 615.8,599.4 628.4,602.9 643.4,606.5 661.6,610.0 685.4,613.5 722.9,617.1" fill="none" stroke="#E0529C" stroke-width="2" stroke-dasharray="7,4" opacity="0.92"/>
<text x="131.8" y="132.9" fill="#E0529C" font-size="9">Ven AS</text>
<polyline points="1412.9,122.9 1375.4,126.5 1351.6,130.0 1333.4,133.5 1318.4,137.1 1305.8,140.6 1294.7,144.1 1284.9,147.6 1276.2,151.2 1268.3,154.7 1261.0,158.2 1254.4,161.8 1248.3,165.3 1242.6,168.8 1237.3,172.4 1232.3,175.9 1227.6,179.4 1223.2,182.9 1219.1,186.5 1215.2,190.0 1211.4,193.5 1207.9,197.1 1204.5,200.6 1201.2,204.1 1198.1,207.6 1195.2,211.2 1192.3,214.7 1189.6,218.2 1186.9,221.8 1184.3,225.3 1181.9,228.8 1179.5,232.4 1177.2,235.9 1174.9,239.4 1172.7,242.9 1170.6,246.5 1168.5,250.0 1166.5,253.5 1164.5,257.1 1162.6,260.6 1160.7,264.1 1158.9,267.6 1157.1,271.2 1155.3,274.7 1153.6,278.2 1151.9,281.8 1150.2,285.3 1148.6,288.8 1147.0,292.4 1145.4,295.9 1143.8,299.4 1142.3,302.9 1140.8,306.5 1139.3,310.0 1137.8,313.5 1136.3,317.1 1134.8,320.6 1133.4,324.1 1131.9,327.6 1130.5,331.2 1129.1,334.7 1127.7,338.2 1126.3,341.8 1124.9,345.3 1123.5,348.8 1122.2,352.4 1120.8,355.9 1119.4,359.4 1118.1,362.9 1116.7,366.5 1115.3,370.0 1114.0,373.5 1112.6,377.1 1111.2,380.6 1109.9,384.1 1108.5,387.6 1107.1,391.2 1105.7,394.7 1104.4,398.2 1103.0,401.8 1101.6,405.3 1100.1,408.8 1098.7,412.4 1097.3,415.9 1095.8,419.4 1094.4,422.9 1092.9,426.5 1091.4,430.0 1089.9,433.5 1088.4,437.1 1086.8,440.6 1085.3,444.1 1083.7,447.6 1082.1,451.2 1080.4,454.7 1078.8,458.2 1077.1,461.8 1075.3,465.3 1073.6,468.8 1071.8,472.4 1069.9,475.9 1068.1,479.4 1066.1,482.9 1064.2,486.5 1062.2,490.0 1060.1,493.5 1058.0,497.1 1055.8,500.6 1053.5,504.1 1051.2,507.6 1048.8,511.2 1046.3,514.7 1043.8,518.2 1041.1,521.8 1038.4,525.3 1035.5,528.8 1032.5,532.4 1029.4,535.9 1026.2,539.4 1022.8,542.9 1019.2,546.5 1015.5,550.0 1011.6,553.5 1007.4,557.1 1003.0,560.6 998.4,564.1 993.4,567.6 988.1,571.2 982.4,574.7 976.3,578.2 969.6,581.8 962.4,585.3 954.5,588.8 945.7,592.4 936.0,595.9 924.9,599.4 912.2,602.9 897.3,606.5 879.1,610.0 855.3,613.5 817.8,617.1" fill="none" stroke="#E0529C" stroke-width="2" stroke-dasharray="7,4,1,4" opacity="0.92"/>
<text x="1416.9" y="132.9" fill="#E0529C" font-size="9">Ven DS</text>
<line x1="267.9" y1="70" x2="267.9" y2="670" stroke="#D7263D" stroke-width="2" stroke-dasharray="none" opacity="0.92"/>
<text x="267.9" y="66" fill="#D7263D" font-size="10" text-anchor="middle">Mar MC</text>
<line x1="957.9" y1="70" x2="957.9" y2="670" stroke="#D7263D" stroke-width="2" stroke-dasharray="2,4" opacity="0.92"/>
<text x="957.9" y="66" fill="#D7263D" font-size="10" text-anchor="middle">Mar IC</text>
<polyline points="238.6,133.5 194.7,137.1 169.9,140.6 151.4,144.1 136.2,147.6 123.4,151.2 112.2,154.7 102.2,158.2 93.2,161.8 85.1,165.3 77.7,168.8 70.8,172.4 64.5,175.9" fill="none" stroke="#D7263D" stroke-width="2" stroke-dasharray="7,4" opacity="0.92"/>
<polyline points="1438.5,179.4 1433.0,182.9 1427.8,186.5 1422.9,190.0 1418.2,193.5 1413.8,197.1 1409.7,200.6 1405.7,204.1 1401.9,207.6 1398.3,211.2 1394.8,214.7 1391.4,218.2 1388.2,221.8 1385.1,225.3 1382.1,228.8 1379.2,232.4 1376.4,235.9 1373.7,239.4 1371.1,242.9 1368.6,246.5 1366.1,250.0 1363.7,253.5 1361.3,257.1 1359.0,260.6 1356.8,264.1 1354.6,267.6 1352.4,271.2 1350.3,274.7 1348.3,278.2 1346.3,281.8 1344.3,285.3 1342.3,288.8 1340.4,292.4 1338.5,295.9 1336.7,299.4 1334.8,302.9 1333.0,306.5 1331.2,310.0 1329.4,313.5 1327.7,317.1 1326.0,320.6 1324.3,324.1 1322.6,327.6 1320.9,331.2 1319.2,334.7 1317.5,338.2 1315.9,341.8 1314.2,345.3 1312.6,348.8 1311.0,352.4 1309.4,355.9 1307.7,359.4 1306.1,362.9 1304.5,366.5 1302.9,370.0 1301.3,373.5 1299.7,377.1 1298.0,380.6 1296.4,384.1 1294.8,387.6 1293.2,391.2 1291.5,394.7 1289.9,398.2 1288.2,401.8 1286.6,405.3 1284.9,408.8 1283.2,412.4 1281.5,415.9 1279.8,419.4 1278.1,422.9 1276.3,426.5 1274.6,430.0 1272.8,433.5 1271.0,437.1 1269.1,440.6 1267.3,444.1 1265.4,447.6 1263.5,451.2 1261.5,454.7 1259.5,458.2 1257.5,461.8 1255.4,465.3 1253.3,468.8 1251.2,472.4 1249.0,475.9 1246.8,479.4 1244.5,482.9 1242.1,486.5 1239.7,490.0 1237.2,493.5 1234.7,497.1 1232.0,500.6 1229.3,504.1 1226.5,507.6 1223.6,511.2 1220.7,514.7 1217.6,518.2 1214.3,521.8 1211.0,525.3 1207.5,528.8 1203.9,532.4 1200.1,535.9 1196.1,539.4 1191.9,542.9 1187.5,546.5 1182.9,550.0 1178.0,553.5 1172.8,557.1 1167.3,560.6 1161.3,564.1 1155.0,567.6 1148.1,571.2 1140.7,574.7 1132.5,578.2 1123.6,581.8 1113.6,585.3 1102.4,588.8 1089.5,592.4 1074.4,595.9 1055.8,599.4 1031.1,602.9 987.2,606.5" fill="none" stroke="#D7263D" stroke-width="2" stroke-dasharray="7,4" opacity="0.92"/>
<text x="1442.5" y="189.4" fill="#D7263D" font-size="9">Mar AS</text>
<polyline points="297.2,133.5 341.1,137.1 365.8,140.6 384.4,144.1 399.5,147.6 412.4,151.2 423.6,154.7 433.6,158.2 442.5,161.8 450.7,165.3 458.1,168.8 465.0,172.4 471.3,175.9 477.3,179.4 482.8,182.9 488.0,186.5 492.9,190.0 497.5,193.5 501.9,197.1 506.1,200.6 510.1,204.1 513.9,207.6 517.5,211.2 521.0,214.7 524.3,218.2 527.6,221.8 530.7,225.3 533.6,228.8 536.5,232.4 539.3,235.9 542.0,239.4 544.7,242.9 547.2,246.5 549.7,250.0 552.1,253.5 554.5,257.1 556.8,260.6 559.0,264.1 561.2,267.6 563.3,271.2 565.4,274.7 567.5,278.2 569.5,281.8 571.5,285.3 573.5,288.8 575.4,292.4 577.3,295.9 579.1,299.4 581.0,302.9 582.8,306.5 584.6,310.0 586.3,313.5 588.1,317.1 589.8,320.6 591.5,324.1 593.2,327.6 594.9,331.2 596.6,334.7 598.2,338.2 599.9,341.8 601.5,345.3 603.2,348.8 604.8,352.4 606.4,355.9 608.0,359.4 609.7,362.9 611.3,366.5 612.9,370.0 614.5,373.5 616.1,377.1 617.7,380.6 619.4,384.1 621.0,387.6 622.6,391.2 624.2,394.7 625.9,398.2 627.5,401.8 629.2,405.3 630.9,408.8 632.6,412.4 634.3,415.9 636.0,419.4 637.7,422.9 639.4,426.5 641.2,430.0 643.0,433.5 644.8,437.1 646.7,440.6 648.5,444.1 650.4,447.6 652.3,451.2 654.3,454.7 656.3,458.2 658.3,461.8 660.3,465.3 662.4,468.8 664.6,472.4 666.8,475.9 669.0,479.4 671.3,482.9 673.7,486.5 676.1,490.0 678.6,493.5 681.1,497.1 683.7,500.6 686.4,504.1 689.2,507.6 692.1,511.2 695.1,514.7 698.2,518.2 701.4,521.8 704.8,525.3 708.3,528.8 711.9,532.4 715.7,535.9 719.7,539.4 723.8,542.9 728.2,546.5 732.9,550.0 737.8,553.5 743.0,557.1 748.5,560.6 754.5,564.1 760.8,567.6 767.7,571.2 775.1,574.7 783.2,578.2 792.2,581.8 802.2,585.3 813.4,588.8 826.2,592.4 841.4,595.9 859.9,599.4 884.7,602.9 928.6,606.5" fill="none" stroke="#D7263D" stroke-width="2" stroke-dasharray="7,4,1,4" opacity="0.92"/>
<text x="301.2" y="143.5" fill="#D7263D" font-size="9">Mar DS</text>
<line x1="504.0" y1="70" x2="504.0" y2="670" stroke="#8E44AD" stroke-width="2" stroke-dasharray="none" opacity="0.92"/>
<text x="504.0" y="66" fill="#8E44AD" font-size="10" text-anchor="middle">Jup MC</text>
<line x1="1194.0" y1="70" x2="1194.0" y2="670" stroke="#8E44AD" stroke-width="2" stroke-dasharray="2,4" opacity="0.92"/>
<text x="1194.0" y="66" fill="#8E44AD" font-size="10" text-anchor="middle">Jup IC</text>
<polyline points="233.3,115.9 229.0,119.4 225.1,122.9 221.6,126.5 218.3,130.0 215.4,133.5 212.7,137.1 210.3,140.6 208.0,144.1 205.8,147.6 203.9,151.2 202.0,154.7 200.3,158.2 198.6,161.8 197.1,165.3 195.6,168.8 194.3,172.4 193.0,175.9 191.7,179.4 190.5,182.9 189.4,186.5 188.3,190.0 187.3,193.5 186.3,197.1 185.4,200.6 184.4,204.1 183.6,207.6 182.7,211.2 181.9,214.7 181.1,218.2 180.3,221.8 179.6,225.3 178.9,228.8 178.2,232.4 177.5,235.9 176.9,239.4 176.2,242.9 175.6,246.5 175.0,250.0 174.4,253.5 173.8,257.1 173.2,260.6 172.7,264.1 172.1,267.6 171.6,271.2 171.1,274.7 170.5,278.2 170.0,281.8 169.5,285.3 169.0,288.8 168.6,292.4 168.1,295.9 167.6,299.4 167.1,302.9 166.7,306.5 166.2,310.0 165.8,313.5 165.3,317.1 164.9,320.6 164.5,324.1 164.0,327.6 163.6,331.2 163.2,334.7 162.7,338.2 162.3,341.8 161.9,345.3 161.5,348.8 161.1,352.4 160.6,355.9 160.2,359.4 159.8,362.9 159.4,366.5 159.0,370.0 158.6,373.5 158.2,377.1 157.7,380.6 157.3,384.1 156.9,387.6 156.5,391.2 156.1,394.7 155.7,398.2 155.2,401.8 154.8,405.3 154.4,408.8 153.9,412.4 153.5,415.9 153.1,419.4 152.6,422.9 152.2,426.5 151.7,430.0 151.3,433.5 150.8,437.1 150.4,440.6 149.9,444.1 149.4,447.6 148.9,451.2 148.4,454.7 147.9,458.2 147.4,461.8 146.9,465.3 146.4,468.8 145.8,472.4 145.3,475.9 144.7,479.4 144.2,482.9 143.6,486.5 143.0,490.0 142.4,493.5 141.7,497.1 141.1,500.6 140.4,504.1 139.8,507.6 139.1,511.2 138.4,514.7 137.6,518.2 136.8,521.8 136.1,525.3 135.2,528.8 134.4,532.4 133.5,535.9 132.6,539.4 131.7,542.9 130.7,546.5 129.6,550.0 128.6,553.5 127.4,557.1 126.2,560.6 125.0,564.1 123.7,567.6 122.3,571.2 120.9,574.7 119.3,578.2 117.7,581.8 116.0,585.3 114.1,588.8 112.1,592.4 110.0,595.9 107.7,599.4 105.2,602.9 102.5,606.5 99.6,610.0 96.4,613.5 92.9,617.1 89.0,620.6 84.6,624.1" fill="none" stroke="#8E44AD" stroke-width="2" stroke-dasharray="7,4" opacity="0.92"/>
<text x="237.3" y="125.9" fill="#8E44AD" font-size="9">Jup AS</text>
<polyline points="774.6,115.9 779.0,119.4 782.9,122.9 786.4,126.5 789.6,130.0 792.5,133.5 795.2,137.1 797.7,140.6 800.0,144.1 802.1,147.6 804.1,151.2 806.0,154.7 807.7,158.2 809.3,161.8 810.9,165.3 812.3,168.8 813.7,172.4 815.0,175.9 816.2,179.4 817.4,182.9 818.6,186.5 819.6,190.0 820.7,193.5 821.7,197.1 822.6,200.6 823.5,204.1 824.4,207.6 825.2,211.2 826.1,214.7 826.8,218.2 827.6,221.8 828.4,225.3 829.1,228.8 829.8,232.4 830.4,235.9 831.1,239.4 831.7,242.9 832.4,246.5 833.0,250.0 833.6,253.5 834.2,257.1 834.7,260.6 835.3,264.1 835.8,267.6 836.4,271.2 836.9,274.7 837.4,278.2 837.9,281.8 838.4,285.3 838.9,288.8 839.4,292.4 839.9,295.9 840.4,299.4 840.8,302.9 841.3,306.5 841.7,310.0 842.2,313.5 842.6,317.1 843.1,320.6 843.5,324.1 843.9,327.6 844.4,331.2 844.8,334.7 845.2,338.2 845.7,341.8 846.1,345.3 846.5,348.8 846.9,352.4 847.3,355.9 847.7,359.4 848.2,362.9 848.6,366.5 849.0,370.0 849.4,373.5 849.8,377.1 850.2,380.6 850.6,384.1 851.1,387.6 851.5,391.2 851.9,394.7 852.3,398.2 852.7,401.8 853.2,405.3 853.6,408.8 854.0,412.4 854.5,415.9 854.9,419.4 855.3,422.9 855.8,426.5 856.2,430.0 856.7,433.5 857.1,437.1 857.6,440.6 858.1,444.1 858.6,447.6 859.0,451.2 859.5,454.7 860.0,458.2 860.5,461.8 861.1,465.3 861.6,468.8 862.1,472.4 862.7,475.9 863.2,479.4 863.8,482.9 864.4,486.5 865.0,490.0 865.6,493.5 866.2,497.1 866.9,500.6 867.5,504.1 868.2,507.6 868.9,511.2 869.6,514.7 870.3,518.2 871.1,521.8 871.9,525.3 872.7,528.8 873.6,532.4 874.4,535.9 875.4,539.4 876.3,542.9 877.3,546.5 878.3,550.0 879.4,553.5 880.5,557.1 881.7,560.6 883.0,564.1 884.3,567.6 885.6,571.2 887.1,574.7 888.6,578.2 890.3,581.8 892.0,585.3 893.9,588.8 895.8,592.4 898.0,595.9 900.3,599.4 902.7,602.9 905.4,606.5 908.3,610.0 911.6,613.5 915.1,617.1 919.0,620.6 923.3,624.1" fill="none" stroke="#8E44AD" stroke-width="2" stroke-dasharray="7,4,1,4" opacity="0.92"/>
<text x="778.6" y="125.9" fill="#8E44AD" font-size="9">Jup DS</text>
<line x1="127.5" y1="70" x2="127.5" y2="670" stroke="#5D4037" stroke-width="2" stroke-dasharray="none" opacity="0.92"/>
<text x="127.5" y="66" fill="#5D4037" font-size="10" text-anchor="middle">Sat MC</text>
<line x1="817.5" y1="70" x2="817.5" y2="670" stroke="#5D4037" stroke-width="2" stroke-dasharray="2,4" opacity="0.92"/>
<text x="817.5" y="66" fill="#5D4037" font-size="10" text-anchor="middle">Sat IC</text>
<polyline points="1433.0,133.5 1407.9,137.1 1389.2,140.6 1373.9,144.1 1361.0,147.6 1349.7,151.2 1339.7,154.7 1330.8,158.2 1322.6,161.8 1315.2,165.3 1308.4,168.8 1302.0,172.4 1296.2,175.9 1290.7,179.4 1285.5,182.9 1280.6,186.5 1276.1,190.0 1271.7,193.5 1267.6,197.1 1263.7,200.6 1260.0,204.1 1256.4,207.6 1253.0,211.2 1249.7,214.7 1246.5,218.2 1243.5,221.8 1240.6,225.3 1237.7,228.8 1235.0,232.4 1232.4,235.9 1229.8,239.4 1227.3,242.9 1224.9,246.5 1222.6,250.0 1220.3,253.5 1218.0,257.1 1215.9,260.6 1213.7,264.1 1211.7,267.6 1209.6,271.2 1207.6,274.7 1205.7,278.2 1203.8,281.8 1201.9,285.3 1200.0,288.8 1198.2,292.4 1196.4,295.9 1194.6,299.4 1192.9,302.9 1191.2,306.5 1189.5,310.0 1187.8,313.5 1186.1,317.1 1184.5,320.6 1182.8,324.1 1181.2,327.6 1179.6,331.2 1178.0,334.7 1176.5,338.2 1174.9,341.8 1173.3,345.3 1171.8,348.8 1170.2,352.4 1168.7,355.9 1167.1,359.4 1165.6,362.9 1164.1,366.5 1162.5,370.0 1161.0,373.5 1159.4,377.1 1157.9,380.6 1156.4,384.1 1154.8,387.6 1153.3,391.2 1151.7,394.7 1150.2,398.2 1148.6,401.8 1147.0,405.3 1145.4,408.8 1143.8,412.4 1142.2,415.9 1140.6,419.4 1138.9,422.9 1137.3,426.5 1135.6,430.0 1133.9,433.5 1132.2,437.1 1130.4,440.6 1128.6,444.1 1126.8,447.6 1125.0,451.2 1123.2,454.7 1121.3,458.2 1119.4,461.8 1117.4,465.3 1115.4,468.8 1113.4,472.4 1111.3,475.9 1109.2,479.4 1107.0,482.9 1104.8,486.5 1102.5,490.0 1100.1,493.5 1097.7,497.1 1095.2,500.6 1092.7,504.1 1090.0,507.6 1087.3,511.2 1084.5,514.7 1081.5,518.2 1078.5,521.8 1075.4,525.3 1072.1,528.8 1068.7,532.4 1065.1,535.9 1061.3,539.4 1057.4,542.9 1053.3,546.5 1049.0,550.0 1044.4,553.5 1039.5,557.1 1034.4,560.6 1028.9,564.1 1023.0,567.6 1016.7,571.2 1009.8,574.7 1002.4,578.2 994.3,581.8 985.3,585.3 975.3,588.8 964.1,592.4 951.1,595.9 935.8,599.4 917.1,602.9 892.1,606.5 847.6,610.0" fill="none" stroke="#5D4037" stroke-width="2" stroke-dasharray="7,4" opacity="0.92"/>
<text x="1437.0" y="143.5" fill="#5D4037" font-size="9">Sat AS</text>
<polyline points="157.6,130.0 202.1,133.5 227.1,137.1 245.8,140.6 261.1,144.1 274.1,147.6 285.3,151.2 295.3,154.7 304.3,158.2 312.4,161.8 319.8,165.3 326.7,168.8 333.0,172.4 338.9,175.9 344.4,179.4 349.5,182.9 354.4,186.5 359.0,190.0 363.3,193.5 367.4,197.1 371.3,200.6 375.1,204.1 378.7,207.6 382.1,211.2 385.4,214.7 388.5,218.2 391.5,221.8 394.5,225.3 397.3,228.8 400.0,232.4 402.7,235.9 405.2,239.4 407.7,242.9 410.1,246.5 412.5,250.0 414.8,253.5 417.0,257.1 419.2,260.6 421.3,264.1 423.4,267.6 425.4,271.2 427.4,274.7 429.4,278.2 431.3,281.8 433.2,285.3 435.0,288.8 436.8,292.4 438.6,295.9 440.4,299.4 442.2,302.9 443.9,306.5 445.6,310.0 447.3,313.5 448.9,317.1 450.6,320.6 452.2,324.1 453.8,327.6 455.4,331.2 457.0,334.7 458.6,338.2 460.2,341.8 461.7,345.3 463.3,348.8 464.8,352.4 466.4,355.9 467.9,359.4 469.4,362.9 471.0,366.5 472.5,370.0 474.1,373.5 475.6,377.1 477.1,380.6 478.7,384.1 480.2,387.6 481.8,391.2 483.3,394.7 484.9,398.2 486.5,401.8 488.0,405.3 489.6,408.8 491.2,412.4 492.8,415.9 494.5,419.4 496.1,422.9 497.8,426.5 499.5,430.0 501.2,433.5 502.9,437.1 504.6,440.6 506.4,444.1 508.2,447.6 510.0,451.2 511.9,454.7 513.8,458.2 515.7,461.8 517.6,465.3 519.6,468.8 521.7,472.4 523.7,475.9 525.9,479.4 528.0,482.9 530.3,486.5 532.6,490.0 534.9,493.5 537.3,497.1 539.8,500.6 542.4,504.1 545.0,507.6 547.7,511.2 550.6,514.7 553.5,518.2 556.5,521.8 559.7,525.3 563.0,528.8 566.4,532.4 570.0,535.9 573.7,539.4 577.6,542.9 581.7,546.5 586.1,550.0 590.6,553.5 595.5,557.1 600.7,560.6 606.2,564.1 612.0,567.6 618.4,571.2 625.2,574.7 632.6,578.2 640.8,581.8 649.7,585.3 659.7,588.8 671.0,592.4 683.9,595.9 699.2,599.4 717.9,602.9 743.0,606.5 787.5,610.0" fill="none" stroke="#5D4037" stroke-width="2" stroke-dasharray="7,4,1,4" opacity="0.92"/>
<text x="161.6" y="140.0" fill="#5D4037" font-size="9">Sat DS</text>
<line x1="184.8" y1="70" x2="184.8" y2="670" stroke="#1565C0" stroke-width="2" stroke-dasharray="none" opacity="0.92"/>
<text x="184.8" y="66" fill="#1565C0" font-size="10" text-anchor="middle">Ura MC</text>
<line x1="874.8" y1="70" x2="874.8" y2="670" stroke="#1565C0" stroke-width="2" stroke-dasharray="2,4" opacity="0.92"/>
<text x="874.8" y="66" fill="#1565C0" font-size="10" text-anchor="middle">Ura IC</text>
<polyline points="126.7,137.1 97.2,140.6 76.6,144.1 60.2,147.6" fill="none" stroke="#1565C0" stroke-width="2" stroke-dasharray="7,4" opacity="0.92"/>
<polyline points="1426.5,151.2 1414.7,154.7 1404.2,158.2 1394.9,161.8 1386.4,165.3 1378.7,168.8 1371.5,172.4 1365.0,175.9 1358.8,179.4 1353.1,182.9 1347.7,186.5 1342.7,190.0 1337.9,193.5 1333.4,197.1 1329.1,200.6 1325.0,204.1 1321.1,207.6 1317.4,211.2 1313.8,214.7 1310.4,218.2 1307.1,221.8 1303.9,225.3 1300.9,228.8 1297.9,232.4 1295.0,235.9 1292.3,239.4 1289.6,242.9 1287.0,246.5 1284.4,250.0 1282.0,253.5 1279.5,257.1 1277.2,260.6 1274.9,264.1 1272.7,267.6 1270.5,271.2 1268.3,274.7 1266.2,278.2 1264.1,281.8 1262.1,285.3 1260.1,288.8 1258.2,292.4 1256.2,295.9 1254.3,299.4 1252.5,302.9 1250.6,306.5 1248.8,310.0 1247.0,313.5 1245.2,317.1 1243.4,320.6 1241.7,324.1 1239.9,327.6 1238.2,331.2 1236.5,334.7 1234.8,338.2 1233.1,341.8 1231.4,345.3 1229.8,348.8 1228.1,352.4 1226.4,355.9 1224.8,359.4 1223.1,362.9 1221.5,366.5 1219.8,370.0 1218.2,373.5 1216.5,377.1 1214.9,380.6 1213.2,384.1 1211.6,387.6 1209.9,391.2 1208.2,394.7 1206.6,398.2 1204.9,401.8 1203.2,405.3 1201.5,408.8 1199.7,412.4 1198.0,415.9 1196.3,419.4 1194.5,422.9 1192.7,426.5 1190.9,430.0 1189.1,433.5 1187.2,437.1 1185.3,440.6 1183.4,444.1 1181.5,447.6 1179.5,451.2 1177.6,454.7 1175.5,458.2 1173.5,461.8 1171.4,465.3 1169.2,468.8 1167.0,472.4 1164.8,475.9 1162.5,479.4 1160.1,482.9 1157.7,486.5 1155.2,490.0 1152.7,493.5 1150.1,497.1 1147.4,500.6 1144.6,504.1 1141.8,507.6 1138.8,511.2 1135.8,514.7 1132.6,518.2 1129.3,521.8 1125.9,525.3 1122.3,528.8 1118.5,532.4 1114.7,535.9 1110.6,539.4 1106.3,542.9 1101.8,546.5 1097.0,550.0 1091.9,553.5 1086.6,557.1 1080.8,560.6 1074.7,564.1 1068.1,567.6 1061.0,571.2 1053.3,574.7 1044.8,578.2 1035.5,581.8 1025.0,585.3 1013.1,588.8 999.4,592.4 983.1,595.9 962.4,599.4 933.0,602.9" fill="none" stroke="#1565C0" stroke-width="2" stroke-dasharray="7,4" opacity="0.92"/>
<text x="1430.5" y="161.2" fill="#1565C0" font-size="9">Ura AS</text>
<polyline points="243.0,137.1 272.4,140.6 293.1,144.1 309.4,147.6 323.1,151.2 335.0,154.7 345.5,158.2 354.8,161.8 363.3,165.3 371.0,168.8 378.1,172.4 384.7,175.9 390.8,179.4 396.6,182.9 401.9,186.5 407.0,190.0 411.8,193.5 416.3,197.1 420.6,200.6 424.7,204.1 428.5,207.6 432.3,211.2 435.9,214.7 439.3,218.2 442.6,221.8 445.8,225.3 448.8,228.8 451.8,232.4 454.6,235.9 457.4,239.4 460.1,242.9 462.7,246.5 465.2,250.0 467.7,253.5 470.1,257.1 472.5,260.6 474.8,264.1 477.0,267.6 479.2,271.2 481.4,274.7 483.5,278.2 485.5,281.8 487.6,285.3 489.5,288.8 491.5,292.4 493.4,295.9 495.3,299.4 497.2,302.9 499.1,306.5 500.9,310.0 502.7,313.5 504.5,317.1 506.3,320.6 508.0,324.1 509.7,327.6 511.5,331.2 513.2,334.7 514.9,338.2 516.6,341.8 518.2,345.3 519.9,348.8 521.6,352.4 523.2,355.9 524.9,359.4 526.5,362.9 528.2,366.5 529.8,370.0 531.5,373.5 533.1,377.1 534.8,380.6 536.4,384.1 538.1,387.6 539.8,391.2 541.4,394.7 543.1,398.2 544.8,401.8 546.5,405.3 548.2,408.8 549.9,412.4 551.7,415.9 553.4,419.4 555.2,422.9 557.0,426.5 558.8,430.0 560.6,433.5 562.5,437.1 564.3,440.6 566.2,444.1 568.2,447.6 570.1,451.2 572.1,454.7 574.1,458.2 576.2,461.8 578.3,465.3 580.5,468.8 582.7,472.4 584.9,475.9 587.2,479.4 589.5,482.9 592.0,486.5 594.4,490.0 597.0,493.5 599.6,497.1 602.3,500.6 605.0,504.1 607.9,507.6 610.9,511.2 613.9,514.7 617.1,518.2 620.4,521.8 623.8,525.3 627.4,528.8 631.1,532.4 635.0,535.9 639.1,539.4 643.4,542.9 647.9,546.5 652.7,550.0 657.7,553.5 663.1,557.1 668.8,560.6 675.0,564.1 681.5,567.6 688.7,571.2 696.4,574.7 704.9,578.2 714.2,581.8 724.7,585.3 736.5,588.8 750.2,592.4 766.6,595.9 787.2,599.4 816.7,602.9" fill="none" stroke="#1565C0" stroke-width="2" stroke-dasharray="7,4,1,4" opacity="0.92"/>
<text x="247.0" y="147.1" fill="#1565C0" font-size="9">Ura DS</text>
<line x1="236.6" y1="70" x2="236.6" y2="670" stroke="#0097A7" stroke-width="2" stroke-dasharray="none" opacity="0.92"/>
<text x="236.6" y="66" fill="#0097A7" font-size="10" text-anchor="middle">Nep MC</text>
<line x1="926.6" y1="70" x2="926.6" y2="670" stroke="#0097A7" stroke-width="2" stroke-dasharray="2,4" opacity="0.92"/>
<text x="926.6" y="66" fill="#0097A7" font-size="10" text-anchor="middle">Nep IC</text>
<polyline points="181.6,137.1 151.0,140.6 130.0,144.1 113.3,147.6 99.4,151.2 87.5,154.7 76.9,158.2 67.5,161.8" fill="none" stroke="#0097A7" stroke-width="2" stroke-dasharray="7,4" opacity="0.92"/>
<polyline points="1439.0,165.3 1431.2,168.8 1424.0,172.4 1417.4,175.9 1411.2,179.4 1405.5,182.9 1400.1,186.5 1395.0,190.0 1390.2,193.5 1385.7,197.1 1381.3,200.6 1377.2,204.1 1373.3,207.6 1369.6,211.2 1366.0,214.7 1362.5,218.2 1359.2,221.8 1356.0,225.3 1353.0,228.8 1350.0,232.4 1347.1,235.9 1344.3,239.4 1341.6,242.9 1339.0,246.5 1336.5,250.0 1334.0,253.5 1331.6,257.1 1329.2,260.6 1326.9,264.1 1324.6,267.6 1322.4,271.2 1320.3,274.7 1318.2,278.2 1316.1,281.8 1314.1,285.3 1312.1,288.8 1310.1,292.4 1308.2,295.9 1306.2,299.4 1304.4,302.9 1302.5,306.5 1300.7,310.0 1298.9,313.5 1297.1,317.1 1295.3,320.6 1293.5,324.1 1291.8,327.6 1290.1,331.2 1288.3,334.7 1286.6,338.2 1284.9,341.8 1283.3,345.3 1281.6,348.8 1279.9,352.4 1278.2,355.9 1276.6,359.4 1274.9,362.9 1273.3,366.5 1271.6,370.0 1270.0,373.5 1268.3,377.1 1266.7,380.6 1265.0,384.1 1263.3,387.6 1261.7,391.2 1260.0,394.7 1258.3,398.2 1256.6,401.8 1254.9,405.3 1253.2,408.8 1251.5,412.4 1249.7,415.9 1248.0,419.4 1246.2,422.9 1244.4,426.5 1242.6,430.0 1240.7,433.5 1238.9,437.1 1237.0,440.6 1235.1,444.1 1233.1,447.6 1231.2,451.2 1229.2,454.7 1227.1,458.2 1225.1,461.8 1223.0,465.3 1220.8,468.8 1218.6,472.4 1216.3,475.9 1214.0,479.4 1211.7,482.9 1209.3,486.5 1206.8,490.0 1204.2,493.5 1201.6,497.1 1198.9,500.6 1196.1,504.1 1193.3,507.6 1190.3,511.2 1187.2,514.7 1184.0,518.2 1180.7,521.8 1177.3,525.3 1173.7,528.8 1169.9,532.4 1166.0,535.9 1161.9,539.4 1157.6,542.9 1153.0,546.5 1148.2,550.0 1143.2,553.5 1137.8,557.1 1132.0,560.6 1125.9,564.1 1119.2,567.6 1112.1,571.2 1104.3,574.7 1095.8,578.2 1086.3,581.8 1075.8,585.3 1063.8,588.8 1049.9,592.4 1033.3,595.9 1012.2,599.4 981.6,602.9" fill="none" stroke="#0097A7" stroke-width="2" stroke-dasharray="7,4" opacity="0.92"/>
<text x="1443.0" y="175.3" fill="#0097A7" font-size="9">Nep AS</text>
<polyline points="291.6,137.1 322.2,140.6 343.3,144.1 359.9,147.6 373.8,151.2 385.8,154.7 396.3,158.2 405.8,161.8 414.3,165.3 422.1,168.8 429.2,172.4 435.9,175.9 442.0,179.4 447.8,182.9 453.2,186.5 458.2,190.0 463.0,193.5 467.6,197.1 471.9,200.6 476.0,204.1 479.9,207.6 483.7,211.2 487.3,214.7 490.7,218.2 494.0,221.8 497.2,225.3 500.3,228.8 503.3,232.4 506.1,235.9 508.9,239.4 511.6,242.9 514.2,246.5 516.8,250.0 519.3,253.5 521.7,257.1 524.0,260.6 526.3,264.1 528.6,267.6 530.8,271.2 533.0,274.7 535.1,278.2 537.1,281.8 539.2,285.3 541.2,288.8 543.1,292.4 545.1,295.9 547.0,299.4 548.9,302.9 550.7,306.5 552.6,310.0 554.4,313.5 556.2,317.1 558.0,320.6 559.7,324.1 561.5,327.6 563.2,331.2 564.9,334.7 566.6,338.2 568.3,341.8 570.0,345.3 571.7,348.8 573.3,352.4 575.0,355.9 576.7,359.4 578.3,362.9 580.0,366.5 581.6,370.0 583.3,373.5 584.9,377.1 586.6,380.6 588.2,384.1 589.9,387.6 591.6,391.2 593.3,394.7 594.9,398.2 596.6,401.8 598.3,405.3 600.1,408.8 601.8,412.4 603.5,415.9 605.3,419.4 607.1,422.9 608.9,426.5 610.7,430.0 612.5,433.5 614.4,437.1 616.2,440.6 618.2,444.1 620.1,447.6 622.1,451.2 624.1,454.7 626.1,458.2 628.2,461.8 630.3,465.3 632.4,468.8 634.6,472.4 636.9,475.9 639.2,479.4 641.6,482.9 644.0,486.5 646.5,490.0 649.0,493.5 651.6,497.1 654.3,500.6 657.1,504.1 660.0,507.6 663.0,511.2 666.0,514.7 669.2,518.2 672.5,521.8 676.0,525.3 679.6,528.8 683.3,532.4 687.2,535.9 691.3,539.4 695.7,542.9 700.2,546.5 705.0,550.0 710.1,553.5 715.5,557.1 721.2,560.6 727.4,564.1 734.0,567.6 741.2,571.2 749.0,574.7 757.5,578.2 766.9,581.8 777.5,585.3 789.4,588.8 803.3,592.4 820.0,595.9 841.0,599.4 871.6,602.9" fill="none" stroke="#0097A7" stroke-width="2" stroke-dasharray="7,4,1,4" opacity="0.92"/>
<text x="295.6" y="147.1" fill="#0097A7" font-size="9">Nep DS</text>
<line x1="1377.2" y1="70" x2="1377.2" y2="670" stroke="#2E2E2E" stroke-width="2" stroke-dasharray="none" opacity="0.92"/>
<text x="1377.2" y="66" fill="#2E2E2E" font-size="10" text-anchor="middle">Plu MC</text>
<line x1="687.2" y1="70" x2="687.2" y2="670" stroke="#2E2E2E" stroke-width="2" stroke-dasharray="2,4" opacity="0.92"/>
<text x="687.2" y="66" fill="#2E2E2E" font-size="10" text-anchor="middle">Plu IC</text>
<polyline points="1213.5,115.9 1200.5,119.4 1189.3,122.9 1179.6,126.5 1171.1,130.0 1163.4,133.5 1156.5,137.1 1150.3,140.6 1144.6,144.1 1139.3,147.6 1134.5,151.2 1130.0,154.7 1125.9,158.2 1122.0,161.8 1118.3,165.3 1114.9,168.8 1111.7,172.4 1108.6,175.9 1105.8,179.4 1103.0,182.9 1100.4,186.5 1098.0,190.0 1095.6,193.5 1093.3,197.1 1091.2,200.6 1089.1,204.1 1087.1,207.6 1085.2,211.2 1083.3,214.7 1081.5,218.2 1079.8,221.8 1078.1,225.3 1076.5,228.8 1075.0,232.4 1073.4,235.9 1072.0,239.4 1070.5,242.9 1069.1,246.5 1067.8,250.0 1066.4,253.5 1065.1,257.1 1063.9,260.6 1062.6,264.1 1061.4,267.6 1060.2,271.2 1059.0,274.7 1057.9,278.2 1056.7,281.8 1055.6,285.3 1054.5,288.8 1053.5,292.4 1052.4,295.9 1051.3,299.4 1050.3,302.9 1049.3,306.5 1048.3,310.0 1047.3,313.5 1046.3,317.1 1045.3,320.6 1044.4,324.1 1043.4,327.6 1042.4,331.2 1041.5,334.7 1040.5,338.2 1039.6,341.8 1038.7,345.3 1037.8,348.8 1036.8,352.4 1035.9,355.9 1035.0,359.4 1034.1,362.9 1033.2,366.5 1032.2,370.0 1031.3,373.5 1030.4,377.1 1029.5,380.6 1028.6,384.1 1027.7,387.6 1026.7,391.2 1025.8,394.7 1024.9,398.2 1023.9,401.8 1023.0,405.3 1022.1,408.8 1021.1,412.4 1020.1,415.9 1019.2,419.4 1018.2,422.9 1017.2,426.5 1016.2,430.0 1015.2,433.5 1014.2,437.1 1013.1,440.6 1012.1,444.1 1011.0,447.6 1010.0,451.2 1008.9,454.7 1007.7,458.2 1006.6,461.8 1005.5,465.3 1004.3,468.8 1003.1,472.4 1001.9,475.9 1000.6,479.4 999.4,482.9 998.1,486.5 996.7,490.0 995.4,493.5 994.0,497.1 992.5,500.6 991.0,504.1 989.5,507.6 988.0,511.2 986.3,514.7 984.7,518.2 982.9,521.8 981.2,525.3 979.3,528.8 977.4,532.4 975.4,535.9 973.3,539.4 971.2,542.9 968.9,546.5 966.5,550.0 964.1,553.5 961.5,557.1 958.7,560.6 955.8,564.1 952.8,567.6 949.6,571.2 946.2,574.7 942.5,578.2 938.6,581.8 934.5,585.3 930.0,588.8 925.2,592.4 919.9,595.9 914.2,599.4 908.0,602.9 901.1,606.5 893.4,610.0 884.9,613.5 875.2,617.1 864.0,620.6 851.0,624.1" fill="none" stroke="#2E2E2E" stroke-width="2" stroke-dasharray="7,4" opacity="0.92"/>
<text x="1217.5" y="125.9" fill="#2E2E2E" font-size="9">Plu AS</text>
<polyline points="161.0,115.9 174.0,119.4 185.2,122.9 194.9,126.5 203.4,130.0 211.1,133.5 218.0,137.1 224.2,140.6 229.9,144.1 235.2,147.6 240.0,151.2 244.5,154.7 248.6,158.2 252.5,161.8 256.2,165.3 259.6,168.8 262.8,172.4 265.8,175.9 268.7,179.4 271.5,182.9 274.1,186.5 276.5,190.0 278.9,193.5 281.2,197.1 283.3,200.6 285.4,204.1 287.4,207.6 289.3,211.2 291.2,214.7 292.9,218.2 294.7,221.8 296.3,225.3 298.0,228.8 299.5,232.4 301.0,235.9 302.5,239.4 304.0,242.9 305.4,246.5 306.7,250.0 308.1,253.5 309.4,257.1 310.6,260.6 311.9,264.1 313.1,267.6 314.3,271.2 315.5,274.7 316.6,278.2 317.7,281.8 318.9,285.3 320.0,288.8 321.0,292.4 322.1,295.9 323.1,299.4 324.2,302.9 325.2,306.5 326.2,310.0 327.2,313.5 328.2,317.1 329.2,320.6 330.1,324.1 331.1,327.6 332.1,331.2 333.0,334.7 333.9,338.2 334.9,341.8 335.8,345.3 336.7,348.8 337.7,352.4 338.6,355.9 339.5,359.4 340.4,362.9 341.3,366.5 342.2,370.0 343.2,373.5 344.1,377.1 345.0,380.6 345.9,384.1 346.8,387.6 347.8,391.2 348.7,394.7 349.6,398.2 350.5,401.8 351.5,405.3 352.4,408.8 353.4,412.4 354.4,415.9 355.3,419.4 356.3,422.9 357.3,426.5 358.3,430.0 359.3,433.5 360.3,437.1 361.3,440.6 362.4,444.1 363.5,447.6 364.5,451.2 365.6,454.7 366.7,458.2 367.9,461.8 369.0,465.3 370.2,468.8 371.4,472.4 372.6,475.9 373.9,479.4 375.1,482.9 376.4,486.5 377.8,490.0 379.1,493.5 380.5,497.1 382.0,500.6 383.4,504.1 385.0,507.6 386.5,511.2 388.1,514.7 389.8,518.2 391.5,521.8 393.3,525.3 395.2,528.8 397.1,532.4 399.1,535.9 401.2,539.4 403.3,542.9 405.6,546.5 408.0,550.0 410.4,553.5 413.0,557.1 415.8,560.6 418.6,564.1 421.7,567.6 424.9,571.2 428.3,574.7 432.0,578.2 435.9,581.8 440.0,585.3 444.5,588.8 449.3,592.4 454.6,595.9 460.3,599.4 466.5,602.9 473.4,606.5 481.1,610.0 489.6,613.5 499.3,617.1 510.5,620.6 523.5,624.1" fill="none" stroke="#2E2E2E" stroke-width="2" stroke-dasharray="7,4,1,4" opacity="0.92"/>
<text x="165.0" y="125.9" fill="#2E2E2E" font-size="9">Plu DS</text>
<text x="60" y="710" fill="#cfd3da" font-size="12" font-weight="bold">Planets</text>
<line x1="130" y1="700" x2="152" y2="700" stroke="#E8A800" stroke-width="3"/>
<text x="158" y="704" fill="#cfd3da" font-size="11">Sun</text>
<line x1="280" y1="700" x2="302" y2="700" stroke="#7C8BA1" stroke-width="3"/>
<text x="308" y="704" fill="#cfd3da" font-size="11">Moon</text>
<line x1="430" y1="700" x2="452" y2="700" stroke="#11998E" stroke-width="3"/>
<text x="458" y="704" fill="#cfd3da" font-size="11">Mercury</text>
<line x1="580" y1="700" x2="602" y2="700" stroke="#E0529C" stroke-width="3"/>
<text x="608" y="704" fill="#cfd3da" font-size="11">Venus</text>
<line x1="730" y1="700" x2="752" y2="700" stroke="#D7263D" stroke-width="3"/>
<text x="758" y="704" fill="#cfd3da" font-size="11">Mars</text>
<line x1="130" y1="722" x2="152" y2="722" stroke="#8E44AD" stroke-width="3"/>
<text x="158" y="726" fill="#cfd3da" font-size="11">Jupiter</text>
<line x1="280" y1="722" x2="302" y2="722" stroke="#5D4037" stroke-width="3"/>
<text x="308" y="726" fill="#cfd3da" font-size="11">Saturn</text>
<line x1="430" y1="722" x2="452" y2="722" stroke="#1565C0" stroke-width="3"/>
<text x="458" y="726" fill="#cfd3da" font-size="11">Uranus</text>
<line x1="580" y1="722" x2="602" y2="722" stroke="#0097A7" stroke-width="3"/>
<text x="608" y="726" fill="#cfd3da" font-size="11">Neptune</text>
<line x1="730" y1="722" x2="752" y2="722" stroke="#2E2E2E" stroke-width="3"/>
<text x="758" y="726" fill="#cfd3da" font-size="11">Pluto</text>
<line x1="850" y1="700" x2="876" y2="700" stroke="#cfd3da" stroke-width="2" stroke-dasharray="none"/>
<text x="882" y="704" fill="#9aa0ac" font-size="10">MC  (solid) culminating</text>
<line x1="850" y1="718" x2="876" y2="718" stroke="#cfd3da" stroke-width="2" stroke-dasharray="2,4"/>
<text x="882" y="722" fill="#9aa0ac" font-size="10">IC  (dotted) anti-culminating</text>
<line x1="850" y1="736" x2="876" y2="736" stroke="#cfd3da" stroke-width="2" stroke-dasharray="7,4"/>
<text x="882" y="740" fill="#9aa0ac" font-size="10">ASC (dashed) rising</text>
<line x1="850" y1="754" x2="876" y2="754" stroke="#cfd3da" stroke-width="2" stroke-dasharray="7,4,1,4"/>
<text x="882" y="758" fill="#9aa0ac" font-size="10">DSC (dash-dot) setting</text>
<text x="60" y="808" fill="#5b606b" font-size="10">Equirectangular projection. Lines = where a planet is angular at birth. Orb of influence ~2° longitude (~138 mi at the equator). * = birthplace.</text>
</svg>