<svg xmlns="http://www.w3.org/2000/svg" width="1500" height="820" viewBox="0 0 1500 820" font-family="Helvetica,Arial,sans-serif">
<rect width="1500" height="820" fill="#0f1117"/>
<rect x="60" y="70" width="1380" height="600" fill="#171a22" stroke="#3a3f4b"/>
<text x="60" y="34" fill="#f5f5f5" font-size="24" font-weight="bold">Jamie Rae Mettenbrink — Astrocartography</text>
<text x="60" y="56" fill="#9aa0ac" font-size="14">4/24/1986 06:10 · lat 33.4942, lng -111.9261 · Sun 4.1° Taurus, Moon 4.3° Scorpio</text>
<line x1="60.0" y1="70" x2="60.0" y2="670" stroke="#2a2e38" stroke-width="1"/>
<text x="60.0" y="686" fill="#6b7280" font-size="11" text-anchor="middle">-140°</text>
<line x1="373.6" y1="70" x2="373.6" y2="670" stroke="#2a2e38" stroke-width="1"/>
<text x="373.6" y="686" fill="#6b7280" font-size="11" text-anchor="middle">-120°</text>
<line x1="687.3" y1="70" x2="687.3" y2="670" stroke="#2a2e38" stroke-width="1"/>
<text x="687.3" y="686" fill="#6b7280" font-size="11" text-anchor="middle">-100°</text>
<line x1="1000.9" y1="70" x2="1000.9" y2="670" stroke="#2a2e38" stroke-width="1"/>
<text x="1000.9" y="686" fill="#6b7280" font-size="11" text-anchor="middle">-80°</text>
<line x1="1314.5" y1="70" x2="1314.5" y2="670" stroke="#2a2e38" stroke-width="1"/>
<text x="1314.5" y="686" fill="#6b7280" font-size="11" text-anchor="middle">-60°</text>
<line x1="60" y1="642.3" x2="1440" y2="642.3" stroke="#2a2e38" stroke-width="1"/>
<text x="52" y="646.3" fill="#6b7280" font-size="11" text-anchor="end">10°</text>
<line x1="60" y1="550.0" x2="1440" y2="550.0" stroke="#2a2e38" stroke-width="1"/>
<text x="52" y="554.0" fill="#6b7280" font-size="11" text-anchor="end">20°</text>
<line x1="60" y1="457.7" x2="1440" y2="457.7" stroke="#2a2e38" stroke-width="1"/>
<text x="52" y="461.7" fill="#6b7280" font-size="11" text-anchor="end">30°</text>
<line x1="60" y1="365.4" x2="1440" y2="365.4" stroke="#2a2e38" stroke-width="1"/>
<text x="52" y="369.4" fill="#6b7280" font-size="11" text-anchor="end">40°</text>
<line x1="60" y1="273.1" x2="1440" y2="273.1" stroke="#2a2e38" stroke-width="1"/>
<text x="52" y="277.1" fill="#6b7280" font-size="11" text-anchor="end">50°</text>
<line x1="60" y1="180.8" x2="1440" y2="180.8" stroke="#2a2e38" stroke-width="1"/>
<text x="52" y="184.8" fill="#6b7280" font-size="11" text-anchor="end">60°</text>
<line x1="60" y1="88.5" x2="1440" y2="88.5" stroke="#2a2e38" stroke-width="1"/>
<text x="52" y="92.5" fill="#6b7280" font-size="11" text-anchor="end">70°</text>
<circle cx="500.2" cy="425.5" r="4.2" fill="#ffd166" stroke="#0f1117" stroke-width="0.6"/>
<text x="505.2" y="428.5" fill="#8b909b" font-size="9">Phoenix*</text>
<circle cx="604.6" cy="365.2" r="2.4" fill="#cfd3da" stroke="#0f1117" stroke-width="0.6"/>
<text x="609.6" y="368.2" fill="#8b909b" font-size="9">Boulder</text>
<circle cx="401.2" cy="420.3" r="2.4" fill="#cfd3da" stroke="#0f1117" stroke-width="0.6"/>
<text x="406.2" y="423.3" fill="#8b909b" font-size="9">Los Angeles</text>
<circle cx="324.7" cy="279.7" r="2.4" fill="#cfd3da" stroke="#0f1117" stroke-width="0.6"/>
<text x="329.7" y="282.7" fill="#8b909b" font-size="9">Vancouver</text>
<circle cx="609.0" cy="367.8" r="2.4" fill="#cfd3da" stroke="#0f1117" stroke-width="0.6"/>
<text x="614.0" y="370.8" fill="#8b909b" font-size="9">Denver</text>
<circle cx="881.3" cy="348.0" r="2.4" fill="#cfd3da" stroke="#0f1117" stroke-width="0.6"/>
<text x="886.3" y="351.0" fill="#8b909b" font-size="9">Chicago</text>
<circle cx="1010.6" cy="331.7" r="2.4" fill="#cfd3da" stroke="#0f1117" stroke-width="0.6"/>
<text x="1015.6" y="334.7" fill="#8b909b" font-size="9">Toronto</text>
<circle cx="1094.8" cy="358.8" r="2.4" fill="#cfd3da" stroke="#0f1117" stroke-width="0.6"/>
<text x="1099.8" y="361.8" fill="#8b909b" font-size="9">New York</text>
<circle cx="997.9" cy="496.8" r="2.4" fill="#cfd3da" stroke="#0f1117" stroke-width="0.6"/>
<text x="1002.9" y="499.8" fill="#8b909b" font-size="9">Miami</text>
<circle cx="700.9" cy="555.3" r="2.4" fill="#cfd3da" stroke="#0f1117" stroke-width="0.6"/>
<text x="705.9" y="558.3" fill="#8b909b" font-size="9">Mexico City</text>
<circle cx="604.6" cy="365.2" r="7" fill="none" stroke="#39FF88" stroke-width="2"/>
<circle cx="604.6" cy="365.2" r="2.5" fill="#39FF88"/>
<text x="614.6" y="357.2" fill="#39FF88" font-size="12" font-weight="bold">Boulder</text>
<polyline points="78.1,125.4 102.2,134.6 124.2,143.8 144.5,153.1 163.2,162.3 180.6,171.5 196.8,180.8 211.9,190.0 226.0,199.2 239.3,208.5 251.9,217.7 263.7,226.9 275.0,236.2 285.6,245.4 295.7,254.6 305.4,263.8 314.6,273.1 323.5,282.3 331.9,291.5 340.0,300.8 347.8,310.0 355.3,319.2 362.5,328.5 369.5,337.7 376.3,346.9 382.8,356.2 389.1,365.4 395.3,374.6 401.2,383.8 407.0,393.1 412.6,402.3 418.1,411.5 423.4,420.8 428.7,430.0 433.8,439.2 438.7,448.5 443.6,457.7 448.4,466.9 453.1,476.2 457.6,485.4 462.2,494.6 466.6,503.8 470.9,513.1 475.2,522.3 479.4,531.5 483.6,540.8 487.7,550.0 491.7,559.2 495.7,568.5 499.7,577.7 503.6,586.9 507.5,596.2 511.3,605.4 515.1,614.6 518.9,623.8 522.6,633.1 526.3,642.3 530.0,651.5 533.7,660.8 537.3,670.0" fill="none" stroke="#E8A800" stroke-width="2" stroke-dasharray="7,4" opacity="0.92"/>
<text x="82.1" y="135.4" fill="#E8A800" font-size="9">Sun AS</text>
<polyline points="78.2,125.4 102.5,134.6 124.7,143.8 145.1,153.1 164.0,162.3 181.5,171.5 197.8,180.8 213.0,190.0 227.2,199.2 240.6,208.5 253.2,217.7 265.2,226.9 276.5,236.2 287.2,245.4 297.4,254.6 307.1,263.8 316.4,273.1 325.3,282.3 333.8,291.5 341.9,300.8 349.8,310.0 357.3,319.2 364.6,328.5 371.6,337.7 378.4,346.9 385.0,356.2 391.3,365.4 397.5,374.6 403.5,383.8 409.3,393.1 415.0,402.3 420.5,411.5 425.9,420.8 431.1,430.0 436.2,439.2 441.2,448.5 446.1,457.7 450.9,466.9 455.7,476.2 460.3,485.4 464.8,494.6 469.3,503.8 473.6,513.1 477.9,522.3 482.2,531.5 486.4,540.8 490.5,550.0 494.6,559.2 498.6,568.5 502.6,577.7 506.5,586.9 510.4,596.2 514.2,605.4 518.1,614.6 521.8,623.8 525.6,633.1 529.3,642.3 533.0,651.5 536.7,660.8 540.4,670.0" fill="none" stroke="#7C8BA1" stroke-width="2" stroke-dasharray="7,4,1,4" opacity="0.92"/>
<text x="82.2" y="135.4" fill="#7C8BA1" font-size="9">Moon DS</text>
<polyline points="60.8,116.2 67.0,125.4 72.7,134.6 78.0,143.8 82.9,153.1 87.5,162.3 91.8,171.5 95.8,180.8 99.6,190.0 103.2,199.2 106.6,208.5 109.8,217.7 112.9,226.9 115.8,236.2 118.5,245.4 121.2,254.6 123.7,263.8 126.1,273.1 128.4,282.3 130.6,291.5 132.8,300.8 134.8,310.0 136.8,319.2 138.7,328.5 140.6,337.7 142.4,346.9 144.1,356.2 145.8,365.4 147.4,374.6 149.0,383.8 150.6,393.1 152.1,402.3 153.5,411.5 155.0,420.8 156.4,430.0 157.7,439.2 159.1,448.5 160.4,457.7 161.7,466.9 162.9,476.2 164.2,485.4 165.4,494.6 166.6,503.8 167.8,513.1 168.9,522.3 170.1,531.5 171.2,540.8 172.3,550.0 173.4,559.2 174.5,568.5 175.5,577.7 176.6,586.9 177.6,596.2 178.7,605.4 179.7,614.6 180.7,623.8 181.7,633.1 182.7,642.3 183.7,651.5 184.7,660.8 185.7,670.0" fill="none" stroke="#11998E" stroke-width="2" stroke-dasharray="7,4" opacity="0.92"/>
<text x="64.8" y="126.2" fill="#11998E" font-size="9">Mer AS</text>
<polyline points="96.4,125.4 148.3,134.6 193.5,143.8 233.4,153.1 269.3,162.3 301.7,171.5 331.3,180.8 358.4,190.0 383.5,199.2 406.8,208.5 428.5,217.7 448.8,226.9 467.9,236.2 485.8,245.4 502.8,254.6 518.9,263.8 534.2,273.1 548.7,282.3 562.6,291.5 575.8,300.8 588.5,310.0 600.7,319.2 612.4,328.5 623.7,337.7 634.5,346.9 645.0,356.2 655.1,365.4 664.9,374.6 674.4,383.8 683.6,393.1 692.5,402.3 701.2,411.5 709.7,420.8 718.0,430.0 726.0,439.2 733.9,448.5 741.5,457.7 749.1,466.9 756.4,476.2 763.6,485.4 770.7,494.6 777.6,503.8 784.5,513.1 791.2,522.3 797.8,531.5 804.3,540.8 810.7,550.0 817.0,559.2 823.3,568.5 829.4,577.7 835.5,586.9 841.6,596.2 847.5,605.4 853.5,614.6 859.3,623.8 865.1,633.1 870.9,642.3 876.7,651.5 882.4,660.8 888.0,670.0" fill="none" stroke="#E0529C" stroke-width="2" stroke-dasharray="7,4" opacity="0.92"/>
<text x="100.4" y="135.4" fill="#E0529C" font-size="9">Ven AS</text>
<line x1="283.2" y1="70" x2="283.2" y2="670" stroke="#D7263D" stroke-width="2" stroke-dasharray="none" opacity="0.92"/>
<text x="283.2" y="66" fill="#D7263D" font-size="10" text-anchor="middle">Mar MC</text>
<polyline points="403.0,116.2 582.8,125.4 683.9,134.6 759.8,143.8 821.7,153.1 874.4,162.3 920.3,171.5 961.0,180.8 997.6,190.0 1030.9,199.2 1061.3,208.5 1089.4,217.7 1115.4,226.9 1139.7,236.2 1162.3,245.4 1183.6,254.6 1203.7,263.8 1222.7,273.1 1240.6,282.3 1257.7,291.5 1274.0,300.8 1289.5,310.0 1304.4,319.2 1318.6,328.5 1332.3,337.7 1345.5,346.9 1358.1,356.2 1370.4,365.4 1382.2,374.6 1393.6,383.8 1404.7,393.1 1415.4,402.3 1425.9,411.5 1436.0,420.8" fill="none" stroke="#D7263D" stroke-width="2" stroke-dasharray="7,4,1,4" opacity="0.92"/>
<text x="407.0" y="126.2" fill="#D7263D" font-size="9">Mar DS</text>
<line x1="1249.0" y1="70" x2="1249.0" y2="670" stroke="#8E44AD" stroke-width="2" stroke-dasharray="none" opacity="0.92"/>
<text x="1249.0" y="66" fill="#8E44AD" font-size="10" text-anchor="middle">Jup MC</text>
<polyline points="141.7,70.0 124.0,79.2 108.0,88.5 93.6,97.7 80.5,106.9 68.5,116.2" fill="none" stroke="#8E44AD" stroke-width="2" stroke-dasharray="7,4" opacity="0.92"/>
<text x="145.7" y="80.0" fill="#8E44AD" font-size="9">Jup AS</text>
<polyline points="116.3,125.4 193.0,134.6 255.5,143.8 308.4,153.1 354.6,162.3 395.4,171.5 432.1,180.8 465.3,190.0 495.7,199.2 523.6,208.5 549.5,217.7 573.6,226.9 596.1,236.2 617.2,245.4 637.0,254.6 655.8,263.8 673.5,273.1 690.4,282.3 706.4,291.5 721.7,300.8 736.3,310.0 750.3,319.2 763.7,328.5 776.6,337.7 789.0,346.9 801.0,356.2 812.6,365.4 823.7,374.6 834.5,383.8 845.0,393.1 855.2,402.3 865.1,411.5 874.7,420.8 884.0,430.0 893.2,439.2 902.1,448.5 910.8,457.7 919.3,466.9 927.6,476.2 935.8,485.4 943.8,494.6 951.6,503.8 959.3,513.1 966.9,522.3 974.4,531.5 981.7,540.8 988.9,550.0 996.1,559.2 1003.1,568.5 1010.1,577.7 1017.0,586.9 1023.8,596.2 1030.5,605.4 1037.2,614.6 1043.8,623.8 1050.3,633.1 1056.8,642.3 1063.3,651.5 1069.7,660.8 1076.1,670.0" fill="none" stroke="#5D4037" stroke-width="2" stroke-dasharray="7,4,1,4" opacity="0.92"/>
<text x="120.3" y="135.4" fill="#5D4037" font-size="9">Sat DS</text>
<polyline points="181.3,125.4 301.7,134.6 386.1,143.8 453.1,153.1 509.2,162.3 557.7,171.5 600.5,180.8 638.8,190.0 673.4,199.2 705.1,208.5 734.2,217.7 761.1,226.9 786.2,236.2 809.6,245.4 831.5,254.6 852.2,263.8 871.7,273.1 890.2,282.3 907.8,291.5 924.5,300.8 940.4,310.0 955.7,319.2 970.3,328.5 984.3,337.7 997.8,346.9 1010.8,356.2 1023.3,365.4 1035.4,374.6 1047.2,383.8 1058.5,393.1 1069.5,402.3 1080.2,411.5 1090.6,420.8 1100.7,430.0 1110.5,439.2 1120.1,448.5 1129.5,457.7 1138.7,466.9 1147.7,476.2 1156.4,485.4 1165.1,494.6 1173.5,503.8 1181.8,513.1 1190.0,522.3 1198.0,531.5 1205.9,540.8 1213.7,550.0 1221.3,559.2 1228.9,568.5 1236.4,577.7 1243.8,586.9 1251.1,596.2 1258.3,605.4 1265.5,614.6 1272.6,623.8 1279.6,633.1 1286.6,642.3 1293.6,651.5 1300.5,660.8 1307.4,670.0" fill="none" stroke="#1565C0" stroke-width="2" stroke-dasharray="7,4,1,4" opacity="0.92"/>
<text x="185.3" y="135.4" fill="#1565C0" font-size="9">Ura DS</text>
<line x1="155.3" y1="70" x2="155.3" y2="670" stroke="#0097A7" stroke-width="2" stroke-dasharray="none" opacity="0.92"/>
<text x="155.3" y="66" fill="#0097A7" font-size="10" text-anchor="middle">Nep MC</text>
<polyline points="380.3,125.4 505.5,134.6 591.6,143.8 659.6,153.1 716.4,162.3 765.4,171.5 808.6,180.8 847.2,190.0 882.1,199.2 913.9,208.5 943.2,217.7 970.3,226.9 995.5,236.2 1019.1,245.4 1041.1,254.6 1061.9,263.8 1081.5,273.1 1100.1,282.3 1117.8,291.5 1134.6,300.8 1150.6,310.0 1165.9,319.2 1180.6,328.5 1194.7,337.7 1208.2,346.9 1221.3,356.2 1233.9,365.4 1246.0,374.6 1257.8,383.8 1269.2,393.1 1280.2,402.3 1291.0,411.5 1301.4,420.8 1311.5,430.0 1321.4,439.2 1331.1,448.5 1340.5,457.7 1349.7,466.9 1358.7,476.2 1367.5,485.4 1376.2,494.6 1384.7,503.8 1393.0,513.1 1401.2,522.3 1409.2,531.5 1417.2,540.8 1425.0,550.0 1432.7,559.2" fill="none" stroke="#0097A7" stroke-width="2" stroke-dasharray="7,4,1,4" opacity="0.92"/>
<text x="384.3" y="135.4" fill="#0097A7" font-size="9">Nep DS</text>
<polyline points="79.0,125.4 104.5,134.6 127.9,143.8 149.3,153.1 169.1,162.3 187.4,171.5 204.4,180.8 220.3,190.0 235.2,199.2 249.2,208.5 262.4,217.7 274.8,226.9 286.6,236.2 297.8,245.4 308.4,254.6 318.5,263.8 328.2,273.1 337.4,282.3 346.3,291.5 354.8,300.8 363.0,310.0 370.8,319.2 378.4,328.5 385.7,337.7 392.7,346.9 399.6,356.2 406.2,365.4 412.6,374.6 418.8,383.8 424.9,393.1 430.8,402.3 436.5,411.5 442.1,420.8 447.5,430.0 452.9,439.2 458.1,448.5 463.2,457.7 468.1,466.9 473.0,476.2 477.8,485.4 482.5,494.6 487.2,503.8 491.7,513.1 496.2,522.3 500.6,531.5 504.9,540.8 509.2,550.0 513.4,559.2 517.6,568.5 521.7,577.7 525.8,586.9 529.9,596.2 533.9,605.4 537.8,614.6 541.8,623.8 545.7,633.1 549.5,642.3 553.4,651.5 557.2,660.8 561.0,670.0" fill="none" stroke="#2E2E2E" stroke-width="2" stroke-dasharray="7,4,1,4" opacity="0.92"/>
<text x="83.0" y="135.4" fill="#2E2E2E" font-size="9">Plu DS</text>
<text x="60" y="710" fill="#cfd3da" font-size="12" font-weight="bold">Planets</text>
<line x1="130" y1="700" x2="152" y2="700" stroke="#E8A800" stroke-width="3"/>
<text x="158" y="704" fill="#cfd3da" font-size="11">Sun</text>
<line x1="280" y1="700" x2="302" y2="700" stroke="#7C8BA1" stroke-width="3"/>
<text x="308" y="704" fill="#cfd3da" font-size="11">Moon</text>
<line x1="430" y1="700" x2="452" y2="700" stroke="#11998E" stroke-width="3"/>
<text x="458" y="704" fill="#cfd3da" font-size="11">Mercury</text>
<line x1="580" y1="700" x2="602" y2="700" stroke="#E0529C" stroke-width="3"/>
<text x="608" y="704" fill="#cfd3da" font-size="11">Venus</text>
<line x1="730" y1="700" x2="752" y2="700" stroke="#D7263D" stroke-width="3"/>
<text x="758" y="704" fill="#cfd3da" font-size="11">Mars</text>
<line x1="130" y1="722" x2="152" y2="722" stroke="#8E44AD" stroke-width="3"/>
<text x="158" y="726" fill="#cfd3da" font-size="11">Jupiter</text>
<line x1="280" y1="722" x2="302" y2="722" stroke="#5D4037" stroke-width="3"/>
<text x="308" y="726" fill="#cfd3da" font-size="11">Saturn</text>
<line x1="430" y1="722" x2="452" y2="722" stroke="#1565C0" stroke-width="3"/>
<text x="458" y="726" fill="#cfd3da" font-size="11">Uranus</text>
<line x1="580" y1="722" x2="602" y2="722" stroke="#0097A7" stroke-width="3"/>
<text x="608" y="726" fill="#cfd3da" font-size="11">Neptune</text>
<line x1="730" y1="722" x2="752" y2="722" stroke="#2E2E2E" stroke-width="3"/>
<text x="758" y="726" fill="#cfd3da" font-size="11">Pluto</text>
<line x1="850" y1="700" x2="876" y2="700" stroke="#cfd3da" stroke-width="2" stroke-dasharray="none"/>
<text x="882" y="704" fill="#9aa0ac" font-size="10">MC  (solid) culminating</text>
<line x1="850" y1="718" x2="876" y2="718" stroke="#cfd3da" stroke-width="2" stroke-dasharray="2,4"/>
<text x="882" y="722" fill="#9aa0ac" font-size="10">IC  (dotted) anti-culminating</text>
<line x1="850" y1="736" x2="876" y2="736" stroke="#cfd3da" stroke-width="2" stroke-dasharray="7,4"/>
<text x="882" y="740" fill="#9aa0ac" font-size="10">ASC (dashed) rising</text>
<line x1="850" y1="754" x2="876" y2="754" stroke="#cfd3da" stroke-width="2" stroke-dasharray="7,4,1,4"/>
<text x="882" y="758" fill="#9aa0ac" font-size="10">DSC (dash-dot) setting</text>
<text x="60" y="808" fill="#5b606b" font-size="10">Equirectangular projection. Lines = where a planet is angular at birth. Orb of influence ~2° longitude (~138 mi at the equator). * = birthplace.</text>
</svg>